<?xml version="1.0" encoding="utf-8"?>
<!-- Generator: Adobe Illustrator 16.0.0, SVG Export Plug-In . SVG Version: 6.00 Build 0)  -->
<!DOCTYPE svg PUBLIC "-//W3C//DTD SVG 1.1//EN" "http://www.w3.org/Graphics/SVG/1.1/DTD/svg11.dtd">
<svg version="1.1" xmlns="http://www.w3.org/2000/svg" xmlns:xlink="http://www.w3.org/1999/xlink" x="0px" y="0px" width="1920px"
	 height="1080px" viewBox="0 0 1920 1080" enable-background="new 0 0 1920 1080" xml:space="preserve">
<g id="Example_xA0_Image_1_">
	<image overflow="visible" width="1920" height="1080" id="Layer_172_xA0_Image" xlink:href="http://13.66.226.25/dusupwallpaper/uploads/svg_templates/Guidelines_03/F4BE9079.jpg" >
	</image>
	<text transform="matrix(1 0 0 1 1293.9619 548.3359)" fill="#FFFFFF" font-family="'OpenSans-Semibold'" font-size="19.9009">TITLE</text>
	<g>
		<g>
			<path fill="#FFFFFF" d="M1299.096,774.648V776c3.546,0,4.941,0,5.438,0c0.054,0,0.101,0,0.135,0c0,1.079,0,7.225,0,8.304
				c-0.255,0-0.146,0-2.184,0v1.352h3.487v-11.006L1299.096,774.648L1299.096,774.648z M1295.266,784.304c0-1.08,0-7.225,0-8.305
				c0.256,0,0.146,0,2.185,0v-1.351h-3.488v11.006h6.876v-1.352c-3.546,0-4.942,0-5.436,0
				C1295.347,784.304,1295.3,784.304,1295.266,784.304z"/>
		</g>
	</g>
	<g>
		<g>
			<path fill="#FFFFFF" d="M1299.096,747.093v1.353c3.546,0,4.941,0,5.438,0c0.054,0,0.101,0,0.135,0c0,1.079,0,7.225,0,8.304
				c-0.255,0-0.146,0-2.184,0v1.351h3.487v-11.006L1299.096,747.093L1299.096,747.093z M1295.266,756.748c0-1.08,0-7.225,0-8.305
				c0.256,0,0.146,0,2.185,0v-1.352h-3.488v11.006h6.876v-1.351c-3.546,0-4.942,0-5.436,0
				C1295.347,756.748,1295.3,756.748,1295.266,756.748z"/>
		</g>
	</g>
	<g>
		<g>
			<g>
				<path fill="#FFFFFF" d="M1299.096,691.981v1.352h5.571v8.304c-0.255,0-0.146,0-2.184,0v1.352h3.487v-11.006L1299.096,691.981
					L1299.096,691.981z M1295.266,693.332c0.256,0,0.146,0,2.185,0v-1.352h-3.488v11.007h6.876v-1.352h-5.571L1295.266,693.332
					L1295.266,693.332z"/>
			</g>
		</g>
	</g>
	<g>
		<g>
			<g>
				<path fill="#FFFFFF" d="M1299.096,719.981v1.352h5.571v8.304c-0.255,0-0.146,0-2.184,0v1.352h3.487v-11.006L1299.096,719.981
					L1299.096,719.981z M1295.266,721.332c0.256,0,0.146,0,2.185,0v-1.352h-3.488v11.007h6.876v-1.352h-5.571L1295.266,721.332
					L1295.266,721.332z"/>
			</g>
		</g>
	</g>
	<rect x="1273.962" y="407.601" fill="none" width="533.974" height="85.496"/>
	<text transform="matrix(1 0 0 1 1273.9619 424.8804)"><tspan x="0" y="0" fill="#FFFFFF" font-family="'HelveticaLTStd-Light'" font-size="24">TITLE</tspan><tspan x="0" y="28.8" fill="#FFFFFF" font-family="'HelveticaLTStd-Light'" font-size="24"></tspan></text>
	<rect x="1293.962" y="586.985" fill="none" width="494.09" height="73.515"/>
	<text transform="matrix(1 0 0 1 1293.9619 599.9453)"><tspan x="0" y="0" fill="#FFFFFF" font-family="'HelveticaLTStd-Light'" font-size="18">Description</tspan></text>
	<rect x="1318.82" y="690.779" fill="none" width="509.728" height="156.798"/>
	
		<line fill="none" stroke="#FFFFFF" stroke-width="0.5" stroke-miterlimit="10" x1="1293.962" y1="559.944" x2="1593.439" y2="559.944"/>
	
		<image overflow="visible" width="288" height="67" id="Group_5_xA0_Image" xlink:href="http://13.66.226.25/dusupwallpaper/uploads/svg_templates/Guidelines_03/F4BE907B.png"  transform="matrix(1 0 0 1 1273.9619 298)">
	</image>
	<line fill="none" stroke="#FFFFFF" stroke-width="0.5" stroke-miterlimit="10" x1="631.351" y1="983.614" x2="1920" y2="983.614"/>
	<g>
		<path fill="#FFFFFF" stroke="#000100" stroke-width="0.216" stroke-miterlimit="2.6131" d="M1626.919,999.978v31.995h70.71v-3.926
			c-25.385,0-64.258,0-66.785,0c0-3.139,0-21.003,0-24.141c0.75,0,4.749,0,10.656,0v-3.929H1626.919z"/>
		<path fill="#FFFFFF" stroke="#000100" stroke-width="0.216" stroke-miterlimit="2.6131" d="M1652.06,999.978v3.929
			c25.38,0,64.655,0,67.188,0c0,3.138,0,21.002,0,24.141c-0.768,0-4.921,0-11.054,0v3.926h14.982v-31.995H1652.06z"/>
		<path fill="#FFFFFF" d="M1648.548,999.913h-3.886v8.238h-9.658v3.689h0.029v11.961h13.259v-0.007h0.256V999.913L1648.548,999.913z
			 M1638.921,1011.841L1638.921,1011.841h5.741v8.278h-5.741V1011.841z"/>
		<path fill="#FFFFFF" d="M1701.012,1032.115h3.893v-8.244h9.658v-3.682h-0.033v-11.964h-13.261v0.003h-0.257V1032.115
			L1701.012,1032.115z M1710.646,1020.189L1710.646,1020.189h-5.742v-8.283h5.742V1020.189z"/>
		<polygon fill="#FFFFFF" points="1665.144,1008.115 1661.246,1008.115 1661.246,1020.276 1655.995,1020.276 1655.995,1008.115 
			1652.111,1008.115 1652.111,1023.762 1652.286,1023.762 1652.286,1023.765 1664.937,1023.765 1664.937,1023.762 
			1665.144,1023.762 		"/>
		<polygon fill="#FFFFFF" points="1697.451,1008.115 1693.566,1008.115 1693.566,1020.276 1688.317,1020.276 1688.317,1008.115 
			1684.425,1008.115 1684.425,1023.762 1684.6,1023.762 1684.6,1023.765 1697.253,1023.765 1697.253,1023.762 1697.451,1023.762 		
			"/>
		<polygon fill="#FFFFFF" points="1672.797,1012.262 1680.867,1012.262 1680.867,1008.115 1668.695,1008.115 1668.695,1017.311 
			1676.771,1017.311 1676.771,1020.235 1668.695,1020.235 1668.695,1023.643 1680.867,1023.643 1680.867,1013.898 
			1672.797,1013.898 		"/>
		<g>
			<path fill="#FFFFFF" d="M1732.17,1020.479h0.96h2.991c1.267,0,2.229,0.344,2.888,1.021c0.661,0.684,0.991,1.678,0.991,2.991
				c0,1.441-0.341,2.541-1.027,3.295c-0.687,0.75-1.688,1.126-3.01,1.126h-2.833h-0.96V1020.479L1732.17,1020.479z
				 M1734.094,1027.462L1734.094,1027.462h1.631c0.782,0,1.37-0.24,1.762-0.727c0.392-0.482,0.589-1.21,0.589-2.178
				c0-0.877-0.183-1.532-0.547-1.972c-0.366-0.439-0.913-0.656-1.648-0.656h-1.786V1027.462z"/>
			<path fill="#FFFFFF" d="M1743.121,1026.58c0,0.382,0.088,0.664,0.269,0.847c0.18,0.183,0.458,0.276,0.83,0.276
				c0.471,0,0.83-0.132,1.082-0.391s0.378-0.634,0.378-1.124v-3.514h0.896h0.905v6.237h-0.854h-0.859v-0.937
				c-0.063,0.115-0.138,0.223-0.226,0.322c-0.445,0.517-1.087,0.774-1.927,0.774c-0.724,0-1.281-0.194-1.688-0.582
				c-0.403-0.391-0.604-0.926-0.604-1.616v-4.199h0.896h0.903V1026.58z"/>
			<path fill="#FFFFFF" d="M1749.115,1020.486h0.897h0.9v3.006l0.039-0.048c0.484-0.621,1.124-0.931,1.921-0.931
				c0.865,0,1.562,0.289,2.089,0.874c0.526,0.582,0.791,1.352,0.791,2.308c0,1.014-0.265,1.827-0.791,2.447
				c-0.527,0.62-1.224,0.93-2.089,0.93c-0.792,0-1.431-0.292-1.921-0.868l-0.077-0.096v0.804h-1.76V1020.486L1749.115,1020.486z
				 M1752.358,1027.713L1752.358,1027.713c0.485,0,0.865-0.163,1.136-0.491c0.274-0.332,0.408-0.791,0.408-1.379
				c0-0.6-0.134-1.065-0.408-1.403c-0.271-0.34-0.647-0.508-1.129-0.508c-0.48,0-0.858,0.177-1.13,0.521
				c-0.272,0.347-0.409,0.83-0.409,1.446c0,0.568,0.137,1.014,0.409,1.333C1751.504,1027.557,1751.879,1027.713,1752.358,1027.713z"
				/>
			<path fill="#FFFFFF" d="M1758.652,1029.072c-0.631,0-1.139-0.167-1.525-0.498c-0.385-0.332-0.576-0.767-0.576-1.305
				c0-0.566,0.174-1.023,0.519-1.367c0.35-0.342,0.854-0.557,1.519-0.642l1.187-0.151c0.31-0.036,0.565-0.103,0.771-0.195
				c0.086-0.037,0.157-0.103,0.205-0.206c0.046-0.099,0.063-0.198,0.052-0.301c-0.024-0.173-0.124-0.31-0.293-0.411
				c-0.206-0.117-0.498-0.173-0.883-0.173c-0.341,0-0.612,0.073-0.803,0.227c-0.194,0.153-0.298,0.365-0.309,0.643h-1.727
				c0.038-0.729,0.31-1.278,0.817-1.638c0.506-0.362,1.247-0.541,2.229-0.541c0.849,0,1.52,0.161,2.013,0.487
				c0.489,0.326,0.735,0.774,0.735,1.339v3.486c0,0.279,0.024,0.478,0.073,0.586c0.053,0.116,0.152,0.206,0.304,0.266v0.009v0.226
				h-0.974h-0.974v-0.007c-0.08-0.252-0.133-0.5-0.158-0.739l-0.006-0.012C1760.281,1028.764,1759.552,1029.072,1758.652,1029.072
				L1758.652,1029.072z M1760.814,1026.605L1760.814,1026.605v-0.715c-0.209,0.105-0.485,0.19-0.825,0.257l-0.666,0.114
				c-0.315,0.056-0.552,0.154-0.717,0.297c-0.162,0.141-0.244,0.322-0.244,0.537c0,0.249,0.074,0.444,0.219,0.586
				c0.146,0.143,0.353,0.211,0.616,0.211c0.577,0,1.037-0.185,1.379-0.555c0.068-0.072,0.124-0.179,0.17-0.319
				C1760.793,1026.874,1760.814,1026.74,1760.814,1026.605z"/>
			<path fill="#FFFFFF" d="M1764.216,1020.422h1.831v1.526h-1.831V1020.422L1764.216,1020.422z M1764.234,1022.675
				L1764.234,1022.675h0.897h0.902v6.237h-0.896h-0.903V1022.675z"/>
			<path fill="#FFFFFF" d="M1776.455,1023.017c-0.034-0.404-0.226-0.725-0.576-0.96c-0.354-0.235-0.813-0.352-1.376-0.352
				c-0.49,0-0.873,0.099-1.151,0.295c-0.274,0.198-0.411,0.471-0.411,0.824c0,0.25,0.144,0.449,0.43,0.585
				c0.286,0.137,0.892,0.301,1.818,0.487c1.342,0.277,2.241,0.595,2.693,0.95c0.453,0.358,0.679,0.93,0.679,1.718
				c0,0.791-0.344,1.42-1.024,1.879c-0.682,0.467-1.604,0.7-2.77,0.7s-2.078-0.245-2.736-0.738
				c-0.655-0.496-1.009-1.199-1.054-2.105h1.856c0.023,0.449,0.201,0.793,0.534,1.035c0.335,0.239,0.803,0.36,1.402,0.36
				c0.614,0,1.095-0.092,1.442-0.273c0.343-0.182,0.517-0.431,0.517-0.755c0-0.315-0.123-0.551-0.368-0.701
				c-0.244-0.147-0.765-0.303-1.562-0.464c-1.462-0.297-2.443-0.62-2.937-0.969c-0.49-0.346-0.733-0.885-0.733-1.61
				c0-0.82,0.323-1.468,0.972-1.948c0.649-0.479,1.524-0.721,2.628-0.721c1.034,0,1.877,0.251,2.526,0.749
				c0.647,0.495,1.008,1.164,1.08,2.014H1776.455z"/>
			<path fill="#FFFFFF" d="M1781.692,1026.58c0,0.382,0.09,0.664,0.271,0.847c0.179,0.183,0.457,0.276,0.83,0.276
				c0.469,0,0.829-0.132,1.08-0.391c0.252-0.259,0.38-0.634,0.38-1.124v-3.514h0.894h0.904v6.237h-0.854h-0.858v-0.937
				c-0.063,0.115-0.138,0.223-0.226,0.322c-0.443,0.517-1.086,0.774-1.926,0.774c-0.723,0-1.281-0.194-1.688-0.582
				c-0.402-0.391-0.605-0.926-0.605-1.616v-4.199h0.897h0.901V1026.58z"/>
			<path fill="#FFFFFF" d="M1787.7,1022.675h0.853h0.86v0.926l0.116-0.159c0.486-0.618,1.127-0.928,1.921-0.928
				c0.868,0,1.562,0.289,2.087,0.874c0.525,0.582,0.79,1.352,0.79,2.308c0,1.014-0.265,1.827-0.79,2.447s-1.219,0.93-2.087,0.93
				c-0.789,0-1.429-0.292-1.914-0.874l-0.037-0.044v3.2h-0.895h-0.904V1022.675L1787.7,1022.675z M1790.938,1027.713
				L1790.938,1027.713c0.48,0,0.855-0.163,1.129-0.491c0.271-0.332,0.407-0.791,0.407-1.379c0-0.6-0.134-1.065-0.405-1.403
				c-0.269-0.34-0.646-0.508-1.125-0.508c-0.481,0-0.855,0.177-1.127,0.521c-0.27,0.347-0.403,0.83-0.403,1.446
				c0,0.568,0.134,1.014,0.403,1.333C1790.089,1027.557,1790.46,1027.713,1790.938,1027.713z"/>
			<path fill="#FFFFFF" d="M1795.552,1022.675h0.854h0.858v0.926l0.119-0.159c0.483-0.618,1.126-0.928,1.921-0.928
				c0.867,0,1.559,0.289,2.084,0.874c0.527,0.582,0.79,1.352,0.79,2.308c0,1.014-0.263,1.827-0.79,2.447
				c-0.525,0.62-1.217,0.93-2.084,0.93c-0.792,0-1.431-0.292-1.916-0.874l-0.038-0.044v3.2h-0.895h-0.904V1022.675
				L1795.552,1022.675z M1798.791,1027.713L1798.791,1027.713c0.479,0,0.856-0.163,1.128-0.491c0.271-0.332,0.409-0.791,0.409-1.379
				c0-0.6-0.137-1.065-0.404-1.403c-0.272-0.34-0.645-0.508-1.127-0.508c-0.481,0-0.856,0.177-1.127,0.521
				c-0.27,0.347-0.405,0.83-0.405,1.446c0,0.568,0.136,1.014,0.405,1.333C1797.94,1027.557,1798.312,1027.713,1798.791,1027.713z"/>
			<polygon fill="#FFFFFF" points="1803.49,1020.486 1804.387,1020.486 1805.291,1020.486 1805.291,1028.912 1804.394,1028.912 
				1803.49,1028.912 			"/>
			<path fill="#FFFFFF" d="M1810.66,1029.044c-0.396,1.051-0.731,1.709-1.013,1.978c-0.279,0.267-0.781,0.4-1.499,0.4l-0.86-0.016
				v-1.323c0.043,0.018,0.157,0.026,0.347,0.026c0.48,0,0.792-0.091,0.939-0.27c0.094-0.116,0.185-0.351,0.276-0.71l-2.545-6.455
				h0.989h0.997l1.488,4.631l1.44-4.631h0.945h0.941L1810.66,1029.044z"/>
			<path fill="#FFFFFF" d="M1820.422,1020.479h1.118h1.116l3.262,8.434h-1.021h-1.023l-0.621-1.719h-3.495l-0.61,1.719h-0.992
				h-0.998L1820.422,1020.479L1820.422,1020.479z M1820.29,1025.745L1820.29,1025.745h2.449l-1.227-3.389L1820.29,1025.745z"/>
			<path fill="#FFFFFF" d="M1828.828,1026.58c0,0.382,0.092,0.664,0.271,0.847c0.181,0.183,0.455,0.276,0.828,0.276
				c0.471,0,0.831-0.132,1.08-0.391c0.253-0.259,0.379-0.634,0.379-1.124v-3.514h0.896h0.902v6.237h-0.853h-0.86v-0.937
				c-0.063,0.115-0.135,0.223-0.224,0.322c-0.444,0.517-1.087,0.774-1.928,0.774c-0.721,0-1.282-0.194-1.687-0.582
				c-0.405-0.391-0.606-0.926-0.606-1.616v-4.199h0.895h0.905V1026.58z"/>
			<path fill="#FFFFFF" d="M1838,1028.945c-0.299,0.024-0.669,0.033-1.107,0.033c-0.634,0-1.09-0.104-1.371-0.313
				c-0.277-0.208-0.417-0.549-0.417-1.022v-3.814h-0.944v-1.154h0.944v-1.678h1.8v1.678H1838v1.154h-1.096v3.535
				c0,0.146,0.047,0.242,0.143,0.285c0.093,0.049,0.289,0.073,0.586,0.073H1838V1028.945z"/>
			<path fill="#FFFFFF" d="M1839.149,1020.486h0.896h0.903v2.983l0.143-0.186c0.446-0.515,1.089-0.771,1.932-0.771
				c0.724,0,1.287,0.19,1.694,0.582c0.408,0.391,0.616,0.931,0.616,1.62v4.196h-0.897h-0.902v-3.898
				c0-0.384-0.091-0.671-0.276-0.855c-0.181-0.186-0.462-0.279-0.839-0.279c-0.476,0-0.839,0.129-1.091,0.391
				c-0.256,0.263-0.379,0.636-0.379,1.123v3.52h-0.898h-0.901V1020.486z"/>
			<path fill="#FFFFFF" d="M1847.549,1028.192c-0.629-0.583-0.945-1.373-0.945-2.365c0-1.016,0.316-1.822,0.945-2.418
				c0.63-0.601,1.477-0.896,2.543-0.896c1.078,0,1.928,0.295,2.555,0.896c0.628,0.596,0.942,1.402,0.942,2.418
				c0,0.992-0.314,1.782-0.942,2.365c-0.627,0.587-1.477,0.88-2.555,0.88C1849.025,1029.072,1848.179,1028.779,1847.549,1028.192
				L1847.549,1028.192z M1851.317,1027.214L1851.317,1027.214c0.278-0.32,0.419-0.789,0.419-1.402c0-0.632-0.141-1.109-0.419-1.435
				c-0.282-0.326-0.688-0.492-1.226-0.492c-0.532,0-0.939,0.166-1.219,0.492c-0.276,0.325-0.418,0.803-0.418,1.435
				c0,0.613,0.142,1.082,0.418,1.402c0.279,0.321,0.687,0.481,1.219,0.481C1850.629,1027.695,1851.035,1027.535,1851.317,1027.214z"
				/>
			<path fill="#FFFFFF" d="M1854.841,1022.675h0.852h0.858v1.12c0.065-0.123,0.136-0.241,0.215-0.356
				c0.424-0.62,0.97-0.925,1.642-0.925l0.408,0.003v1.678c-0.159-0.016-0.34-0.021-0.539-0.021c-0.55,0-0.96,0.12-1.229,0.371
				c-0.271,0.246-0.407,0.627-0.407,1.132v3.236h-0.897h-0.901V1022.675z"/>
			<path fill="#FFFFFF" d="M1859.912,1020.422h1.831v1.526h-1.831V1020.422L1859.912,1020.422z M1859.93,1022.675L1859.93,1022.675
				h0.898h0.899v6.237h-0.894h-0.904V1022.675z"/>
			<path fill="#FFFFFF" d="M1866.563,1028.945c-0.302,0.024-0.672,0.033-1.11,0.033c-0.634,0-1.09-0.104-1.37-0.313
				c-0.276-0.208-0.417-0.549-0.417-1.022v-3.814h-0.945v-1.154h0.945v-1.678h1.799v1.678h1.099v1.154h-1.099v3.535
				c0,0.146,0.049,0.242,0.144,0.285c0.092,0.049,0.289,0.073,0.584,0.073h0.371V1028.945z"/>
			<path fill="#FFFFFF" d="M1871.359,1029.044c-0.396,1.051-0.731,1.709-1.013,1.978c-0.279,0.267-0.778,0.4-1.499,0.4l-0.859-0.016
				v-1.323c0.041,0.018,0.158,0.026,0.345,0.026c0.482,0,0.794-0.091,0.941-0.27c0.091-0.116,0.183-0.351,0.276-0.71l-2.547-6.455
				h0.992h0.994l1.49,4.631l1.44-4.631h0.944h0.941L1871.359,1029.044z"/>
			<path fill="#FFFFFF" d="M1735.984,1005.076l0.694-0.809h0.115c0.281,0.318,0.553,0.587,0.809,0.809h0.155
				c0.358-0.412,0.609-0.722,0.75-0.928v-0.231l-0.963-0.865c-0.037-0.013-0.07-0.021-0.097-0.021c-0.09,0-0.173,0.06-0.249,0.174
				c-0.076,0.116-0.127,0.183-0.155,0.195c-0.102,0.192-0.219,0.291-0.346,0.291c-0.116,0-0.292-0.108-0.529-0.33
				c-0.237-0.219-0.415-0.33-0.528-0.33l-0.769,0.953C1735.307,1004.501,1735.68,1004.868,1735.984,1005.076L1735.984,1005.076z
				 M1740.048,1004.748c0.425,0.179,0.765,0.687,1.02,1.518c0.218,0.744,0.269,1.602,0.154,2.578
				c-0.219,0.463-0.796,0.802-1.732,1.021c-1.9,0.178-3.054,0.268-3.467,0.268c-1.14,0-2.07-0.177-2.79-0.54
				c-0.794-0.397-1.153-1.055-1.077-1.98c0.063-0.689,0.354-1.41,0.867-2.152c0.012,0,0.044-0.018,0.096-0.059
				c0.051-0.012,0.091-0.012,0.114,0c-0.012,0.118-0.052,0.336-0.119,0.655c-0.053,0.268-0.079,0.48-0.079,0.636
				c0,0.321,0.097,0.584,0.29,0.788c0.54,0.565,1.418,0.849,2.639,0.849c0.191,0,0.481-0.009,0.867-0.025
				c0.384-0.016,0.668-0.025,0.848-0.025c0.437-0.049,0.873-0.102,1.311-0.149c0.499-0.079,0.906-0.2,1.213-0.367
				c-0.039-0.229-0.181-0.492-0.425-0.789c-0.346-0.406-0.537-0.645-0.576-0.709
				C1739.367,1005.907,1739.649,1005.4,1740.048,1004.748L1740.048,1004.748L1740.048,1004.748z M1744.184,1003.248
				L1744.184,1003.248c-0.113-1.385-0.178-2.379-0.19-2.98c0-0.129-0.052-0.168-0.154-0.115c-0.231,0.283-0.469,0.564-0.712,0.846
				c-0.268,0.333-0.403,0.651-0.403,0.961c0.011,0.655,0.096,1.764,0.25,3.328c0.129,1.374,0.18,2.476,0.155,3.31
				c0,0.189,0.038,0.308,0.116,0.344c0.603-0.743,0.956-1.275,1.06-1.596c0.021-0.373,0.035-0.749,0.035-1.133
				C1744.34,1005.507,1744.288,1004.52,1744.184,1003.248L1744.184,1003.248z M1748.524,1001.725L1748.524,1001.725
				c-0.282-0.116-0.558-0.231-0.827-0.348c-0.321-0.128-0.604-0.2-0.85-0.212c-0.268,0.554-0.434,0.988-0.498,1.312
				c0.385,0.192,0.937,0.409,1.653,0.653C1748.196,1002.835,1748.371,1002.367,1748.524,1001.725L1748.524,1001.725z
				 M1757.551,1010.1L1757.551,1010.1c-0.091,0-0.173,0.057-0.25,0.17c-0.078,0.117-0.127,0.184-0.155,0.195
				c-0.102,0.193-0.218,0.287-0.346,0.287c-0.112,0-0.292-0.104-0.528-0.316c-0.237-0.212-0.422-0.317-0.55-0.317l-0.748,0.939
				c0.435,0.515,0.808,0.872,1.115,1.077l0.692-0.805h0.115c0.283,0.316,0.553,0.588,0.809,0.805h0.154
				c0.346-0.41,0.597-0.719,0.749-0.923v-0.23l-0.96-0.863C1757.61,1010.106,1757.578,1010.1,1757.551,1010.1L1757.551,1010.1z
				 M1773.031,1010.118L1773.031,1010.118h-0.229l-0.676,1v0.212l1.37,0.695h0.248c0.254-0.333,0.463-0.705,0.615-1.117
				c-0.152-0.076-0.373-0.209-0.663-0.396C1773.406,1010.324,1773.186,1010.193,1773.031,1010.118L1773.031,1010.118z
				 M1784.563,1002.167L1784.563,1002.167l0.711-0.808h0.114c0.283,0.333,0.554,0.604,0.811,0.808h0.155
				c0.346-0.411,0.596-0.712,0.75-0.906v-0.25l-0.963-0.869c-0.038-0.011-0.078-0.016-0.116-0.016c-0.074,0-0.156,0.056-0.231,0.174
				c-0.077,0.115-0.126,0.18-0.153,0.191c-0.103,0.194-0.219,0.291-0.346,0.291c-0.116,0-0.294-0.11-0.53-0.329
				c-0.236-0.221-0.42-0.327-0.549-0.327l-0.75,0.972C1783.902,1001.616,1784.266,1001.975,1784.563,1002.167L1784.563,1002.167z
				 M1804.033,1001.013c0.026,0.31,0.057,0.611,0.094,0.907c0.036,0.836,0.055,3.044,0.055,6.619
				c-0.153,0.221-0.408,0.337-0.769,0.351h-4.384v-0.045h-3.305v-0.121c-0.146,0.091-0.318,0.157-0.544,0.166h-4.38v-0.045h-3.295
				v-0.139c-0.007,0.006-0.012,0.012-0.02,0.015c-0.102,0.07-0.16,0.115-0.172,0.124h-20.305c0.255,0.26,0.339,0.528,0.25,0.81
				c-0.115,0.448-0.226,0.896-0.328,1.345c-0.152,0.499-0.38,0.879-0.674,1.136c-0.641,0.039-1.221-0.285-1.732-0.963
				c-0.245-0.347-0.527-1.087-0.848-2.231c-0.307-0.091-0.777-0.122-1.394-0.102v0.006h-3.516v-0.162
				c-0.015,0.012-0.024,0.026-0.042,0.038c-0.104,0.07-0.162,0.115-0.175,0.124h-8.435c-0.14,1.509-0.841,2.757-2.111,3.743
				c-0.271,0.164-0.578,0.249-0.922,0.249c-0.44,0-0.817-0.117-1.138-0.348c-0.952-0.657-1.49-1.381-1.618-2.177l0.041-0.043
				c0.729,0.538,1.449,0.811,2.155,0.811c0.18,0,0.358-0.019,0.539-0.058c0.82-0.167,1.548-0.878,2.176-2.138
				c-0.038,0-0.026-0.023,0.039-0.076c-0.013-0.323-0.175-0.66-0.482-1.018c-0.258-0.312-0.521-0.619-0.793-0.928
				c0.245-0.68,0.504-1.23,0.772-1.655c0.27,0.066,0.501,0.259,0.694,0.578c0.129,0.281,0.264,0.564,0.403,0.848
				c0.05,0.146,0.074,0.296,0.11,0.442h3.218v-0.017h4.428c0.062-0.047,0.076-0.13,0.038-0.248c-0.051-0.15-0.077-0.234-0.077-0.248
				l-0.75-1.208l0.038-0.15l0.903-1.455c0.232,0.063,0.411,0.233,0.54,0.518c0.089,0.244,0.181,0.488,0.27,0.734
				c0.192,0.814,0.313,1.508,0.361,2.074h3.332c0.509-0.002,0.814-0.009,0.895-0.018c0.435-0.038,0.725-0.187,0.864-0.434
				c0.144-0.249,0.404-0.848,0.791-1.801c0.321-0.755,0.641-1.337,0.961-1.747c0.193-0.191,0.388-0.288,0.578-0.288
				c0.167,0,0.264,0.097,0.291,0.288c0.268,0.782,0.401,1.5,0.401,2.155c0,0.715-0.174,1.301-0.521,1.75
				c0.216,0.095,0.898,0.124,2.004,0.1v-0.022h6.813c0.076-0.009,0.188-0.062,0.328-0.151c-0.116-0.228-0.526-0.641-1.232-1.233
				c-0.473-0.419-1.064-0.629-1.771-0.629c-0.476,0-0.913,0.106-1.31,0.316c-0.039-0.026-0.059-0.16-0.059-0.398
				c0.655-0.849,1.394-1.268,2.214-1.268c0.168,0,0.34,0.018,0.521,0.057c0.616,0.138,1.269,0.515,1.965,1.128l1.691,1.685
				c0.347,0.33,0.744,0.494,1.193,0.494v0.017h3.061v-0.017h4.429c0.063-0.047,0.075-0.133,0.035-0.248
				c-0.05-0.15-0.073-0.234-0.073-0.248l-0.752-1.208l0.038-0.153l0.907-1.456c0.228,0.064,0.408,0.237,0.537,0.521
				c0.088,0.241,0.181,0.486,0.269,0.732c0.192,0.816,0.314,1.51,0.363,2.076h3.308v0.023h3.688l0.116-0.209
				c-0.013-0.672-0.076-1.573-0.187-2.706c-0.112-1.338-0.182-2.24-0.205-2.704l1.116-1.274c0.114,0.179,0.198,0.445,0.248,0.807
				c0.023,0.31,0.058,0.611,0.096,0.907c0.031,0.711,0.05,2.435,0.05,5.156h3.297v0.023h3.702l0.115-0.209
				c-0.015-0.672-0.075-1.573-0.187-2.706c-0.112-1.338-0.182-2.24-0.206-2.704l1.115-1.274
				C1803.896,1000.385,1803.98,1000.651,1804.033,1001.013L1804.033,1001.013L1804.033,1001.013z M1764.736,1006.094
				c-0.141,0.244-0.211,0.451-0.211,0.617c0.281-0.038,0.565-0.084,0.847-0.136c0.283-0.051,0.513-0.153,0.693-0.31
				c0.026-0.332-0.029-0.77-0.154-1.312l-0.154-0.266c-0.155,0.054-0.285,0.162-0.395,0.328c-0.109,0.167-0.216,0.334-0.318,0.499
				C1765.02,1005.568,1764.914,1005.76,1764.736,1006.094L1764.736,1006.094L1764.736,1006.094z M1766.353,1010.313
				c0.128-0.027,0.191-0.213,0.191-0.562c-0.164-0.489-0.601-0.87-1.306-1.154c-0.041,0-0.141-0.012-0.299-0.041
				c-0.16-0.023-0.28-0.029-0.355-0.017c0.004,0.206,0.004,0.306,0,0.306C1765.135,1009.86,1765.724,1010.349,1766.353,1010.313
				L1766.353,1010.313L1766.353,1010.313z M1814.093,1013.865L1814.093,1013.865c-0.104,0-0.195,0.094-0.279,0.281
				c-0.083,0.186-0.164,0.285-0.242,0.3c-0.55-0.213-0.978-0.406-1.289-0.581c-0.039,0.026-0.123,0.154-0.247,0.382
				c-0.129,0.229-0.194,0.36-0.194,0.4v0.038c0.413,0.274,0.801,0.491,1.172,0.648c0.027,0.011,0.053,0.019,0.079,0.019
				c0.076,0,0.162-0.091,0.258-0.271c0.099-0.182,0.189-0.27,0.28-0.27c0.062,0,0.463,0.179,1.191,0.541
				c0.094,0,0.209-0.136,0.349-0.404c0.102-0.219,0.16-0.374,0.173-0.464c-0.104-0.093-0.323-0.22-0.663-0.378
				C1814.339,1013.945,1814.144,1013.865,1814.093,1013.865L1814.093,1013.865z M1826.688,1004.268L1826.688,1004.268
				c-0.129-0.284-0.31-0.455-0.539-0.518l-0.904,1.455l-0.038,0.15l0.75,1.208c0,0.014,0.024,0.098,0.077,0.248
				c0.039,0.118,0.025,0.201-0.037,0.248h-4.428v0.017h-3.935c-0.86,0-1.622,0.173-2.291,0.52c-0.82,0.419-1.232,1.02-1.232,1.784
				c0,0.361,0.265,0.686,0.79,0.981c0.411,0.191,0.822,0.384,1.232,0.574c-0.27,0.22-0.532,0.381-0.79,0.482
				c-0.613,0.27-1.275,0.406-1.979,0.406c-1.489,0-2.233-0.693-2.233-2.078c0-0.293,0.105-0.771,0.317-1.441
				c0.21-0.665,0.315-0.978,0.315-0.941c0-0.088-0.038-0.133-0.114-0.133c-0.258,0-0.554,0.494-0.887,1.481
				c-0.295,0.897-0.442,1.545-0.442,1.945c0,0.934,0.206,1.678,0.618,2.229c0.46,0.616,1.153,0.926,2.075,0.926
				c0.976,0,1.982-0.314,3.023-0.94c1.154-0.703,1.733-1.51,1.733-2.418c0-0.422-0.02-0.677-0.061-0.768
				c-0.099-0.193-0.369-0.359-0.808-0.498c-0.306-0.104-0.612-0.201-0.923-0.288c0.359-0.026,1.22-0.038,2.579-0.038
				c0.009,0,0.021-0.01,0.028-0.017h8.332c0.015-0.009,0.07-0.054,0.175-0.124c0.101-0.069,0.159-0.144,0.172-0.22
				c0.053-0.285,0.078-0.584,0.078-0.905c0-0.642-0.129-1.505-0.385-2.594C1826.868,1004.756,1826.779,1004.512,1826.688,1004.268
				L1826.688,1004.268z M1825.782,1010.118c0.144,0.075,0.357,0.206,0.646,0.395c0.288,0.187,0.51,0.319,0.662,0.396
				c-0.152,0.412-0.358,0.784-0.614,1.117h-0.25l-1.367-0.695v-0.212l0.674-1H1825.782L1825.782,1010.118L1825.782,1010.118z
				 M1831.948,1002.883L1831.948,1002.883c-0.398,0.718-0.655,1.206-0.771,1.463c0.015,0.014,0.226,0.449,0.633,1.306
				c0.259,0.515,0.406,0.968,0.444,1.369c-0.243,0.151-0.551,0.263-0.924,0.324c-0.139,0.027-0.493,0.053-1.058,0.08
				c-0.372,0.063-0.642-0.091-0.81-0.465c-0.114-0.321-0.229-0.637-0.344-0.942c-0.311,0.487-0.433,1.204-0.368,2.153
				c0.116,0.382,0.189,0.583,0.222,0.604c0.034,0.017,0.047,0.055,0.047,0.106c0.309,0.229,0.675,0.345,1.098,0.345
				c0.27,0,0.669-0.061,1.194-0.178c0.526-0.122,0.904-0.187,1.137-0.203l0.461-0.15c0.296-0.181,0.443-0.396,0.443-0.655
				c0-1.681-0.334-3.265-1.003-4.752C1832.286,1003.068,1832.154,1002.935,1831.948,1002.883L1831.948,1002.883z M1841.576,1001.265
				L1841.576,1001.265l0.714-0.812h0.095c0.284,0.334,0.559,0.605,0.83,0.812h0.135c0.358-0.415,0.614-0.722,0.769-0.927v-0.232
				l-0.981-0.868c-0.027-0.013-0.059-0.02-0.098-0.02c-0.077,0-0.154,0.06-0.238,0.176c-0.087,0.114-0.132,0.18-0.148,0.194
				c-0.115,0.191-0.236,0.29-0.362,0.29c-0.114,0-0.29-0.111-0.521-0.331c-0.23-0.217-0.409-0.329-0.537-0.329l-0.752,0.976
				C1840.902,1000.71,1841.268,1001.07,1841.576,1001.265L1841.576,1001.265z M1850.326,1002.614L1850.326,1002.614
				c0.129,0.063,0.252,0.119,0.369,0.172c-0.166,0.333-0.249,0.518-0.249,0.556c0,0.066,0.045,0.096,0.134,0.096l0.861-0.712
				c0.051-0.038,0.264-0.114,0.634-0.229c0.254-0.092,0.383-0.225,0.383-0.404c0-0.076-0.021-0.168-0.059-0.271
				c-0.192,0.089-0.383,0.179-0.576,0.271c-0.269,0.115-0.493,0.171-0.671,0.171c-0.206,0-0.397-0.064-0.574-0.19
				c-0.028-0.051-0.04-0.102-0.04-0.152c0-0.09,0.082-0.218,0.251-0.381c0.114-0.12,0.277-0.183,0.482-0.193
				c0.206-0.013,0.397-0.021,0.579-0.021c0.09-0.181,0.14-0.313,0.154-0.403c-0.104-0.064-0.367-0.094-0.791-0.094
				c-0.295,0.064-0.544,0.242-0.745,0.538c-0.199,0.291-0.313,0.611-0.338,0.958
				C1850.131,1002.454,1850.197,1002.549,1850.326,1002.614L1850.326,1002.614z M1861.179,1010.1L1861.179,1010.1
				c-0.089,0-0.173,0.057-0.249,0.17c-0.076,0.117-0.13,0.184-0.154,0.195c-0.102,0.193-0.219,0.287-0.349,0.287
				c-0.114,0-0.29-0.104-0.528-0.316c-0.235-0.212-0.418-0.317-0.547-0.317l-0.751,0.939c0.437,0.515,0.809,0.872,1.118,1.077
				l0.692-0.805h0.114c0.282,0.316,0.554,0.588,0.81,0.805h0.152c0.347-0.41,0.599-0.719,0.75-0.923v-0.23l-0.962-0.863
				C1861.237,1010.106,1861.206,1010.1,1861.179,1010.1L1861.179,1010.1z M1871.611,1002.725c1.544,1.333,2.315,2.742,2.315,4.215
				c0,0.413-0.066,0.823-0.194,1.233l-0.191,0.58c-0.09,0.23-0.213,0.396-0.368,0.5c-0.308-0.014-0.696-0.195-1.174-0.547
				c-0.474-0.357-0.861-0.558-1.157-0.609c-0.166,0.014-0.365,0.129-0.604,0.345c-0.236,0.221-0.441,0.341-0.609,0.367l-0.133,0.036
				h-7.097v-0.162c-0.016,0.016-0.026,0.026-0.045,0.038c-0.103,0.07-0.161,0.115-0.171,0.124h-8.657v-0.139
				c-0.008,0.006-0.013,0.012-0.021,0.015c-0.102,0.07-0.159,0.115-0.172,0.124h-9.234c-0.655-0.127-1.077-0.717-1.271-1.768
				l-0.097-0.502l-0.308,0.502c-0.13,0.425-0.335,0.724-0.617,0.903c-0.872,0-1.68-0.281-2.424-0.849
				c-0.102-1.024,0.187-1.84,0.865-2.443c0.231-0.188,0.525-0.371,0.886-0.54c0.321-0.139,0.634-0.273,0.943-0.402
				c0.078-0.152,0.058-0.328-0.059-0.521l0.81-1.192l0.154,0.346c0.103,0.938,0.32,2.318,0.654,4.141
				c0.191,0.293,0.611,0.479,1.264,0.558h3.081v-0.017h4.428c0.065-0.047,0.075-0.133,0.037-0.248
				c-0.052-0.15-0.076-0.234-0.076-0.248l-0.75-1.208l0.038-0.153l0.904-1.456c0.231,0.064,0.409,0.237,0.538,0.521
				c0.092,0.241,0.181,0.486,0.271,0.732c0.191,0.816,0.314,1.51,0.363,2.076h3.094v-0.017h4.43c0.063-0.047,0.077-0.13,0.037-0.248
				c-0.051-0.15-0.077-0.234-0.077-0.248l-0.751-1.208l0.038-0.15l0.905-1.455c0.231,0.063,0.412,0.233,0.539,0.518
				c0.091,0.244,0.178,0.488,0.27,0.734c0.192,0.814,0.313,1.508,0.362,2.074h3.123v-0.017h2.887
				c0.114-0.894,0.262-1.545,0.44-1.957l1.061-1.054c-0.258-0.283-0.386-0.492-0.386-0.638c0-0.061,0.013-0.124,0.038-0.19
				c0.258-0.56,0.518-0.911,0.79-1.056c0.193-0.022,0.392,0.042,0.598,0.192C1871.299,1002.474,1871.459,1002.596,1871.611,1002.725
				L1871.611,1002.725L1871.611,1002.725z M1842.193,1006.19c0.152,0,0.299-0.027,0.443-0.074c0-0.259-0.124-0.831-0.367-1.715
				l-1.021,0.5l-0.422,0.268c-0.167,0.105-0.28,0.22-0.327,0.347c0.047,0.029,0.122,0.079,0.21,0.157
				c0.245,0.103,0.497,0.215,0.761,0.336C1841.734,1006.129,1841.975,1006.19,1842.193,1006.19L1842.193,1006.19L1842.193,1006.19z
				 M1870.605,1006.711c0.257-0.284,0.386-0.617,0.386-1.001c0-0.396-0.104-0.634-0.308-0.71c-0.078-0.026-0.172-0.046-0.286-0.046
				c-0.349,0.046-0.61,0.237-0.79,0.583c-0.126,0.32-0.254,0.634-0.385,0.943L1870.605,1006.711L1870.605,1006.711
				L1870.605,1006.711z M1871.246,1006.825l1.773,0.6c-0.104-1.208-0.536-2.069-1.297-2.583v0.35
				C1871.723,1005.64,1871.563,1006.184,1871.246,1006.825L1871.246,1006.825z"/>
		</g>
	</g>
	
		<rect x="1273.962" y="506.595" fill="none" stroke="#FFFFFF" stroke-width="0.5" stroke-miterlimit="10" width="568.251" height="319.484"/>
		<image xlink:href="http://13.66.226.25/dusupwallpaper/uploads/svg_templates/Guidelines_03/EB12329B.png"  width="1003" height="268" id="logo_xA0_Image"   transform="matrix(0.3168 0 0 0.3119 1581.1172 962.8818)">
</image>
</g>
<g id="Layer_2">
</g>
<g id="Layer_3">
</g>
<g id="Layer_4">
</g>
</svg>
