<?xml version="1.0" encoding="utf-8"?>
<!-- Generator: Adobe Illustrator 16.0.0, SVG Export Plug-In . SVG Version: 6.00 Build 0)  -->
<!DOCTYPE svg PUBLIC "-//W3C//DTD SVG 1.1//EN" "http://www.w3.org/Graphics/SVG/1.1/DTD/svg11.dtd">
<svg version="1.1" id="BG_xA0_Image_1_" xmlns="http://www.w3.org/2000/svg" xmlns:xlink="http://www.w3.org/1999/xlink" x="0px"
	 y="0px" width="1920px" height="1080px" viewBox="0 0 1920 1080" enable-background="new 0 0 1920 1080" xml:space="preserve">
<image overflow="visible" enable-background="new    " width="1921" height="1081" id="BG_x5F_2_xA0_Image" xlink:href="http://13.66.226.25/dusupwallpaper/uploads/svg_templates/Information_01/D417FE00.jpeg"  transform="matrix(0.9995 0 0 0.9991 9.765625e-004 -4.882813e-004)">
</image>
<text transform="matrix(1 0 0 1 1228.4756 491.0918)" fill="#FFFFFF" font-family="'OpenSans'" font-size="19.9009">Title</text>
<image overflow="visible" enable-background="new    " width="1003" height="263" id="logo_xA0_Image" xlink:href="http://13.66.226.25/dusupwallpaper/uploads/svg_templates/Information_01/D417FE00.png"  transform="matrix(0.2991 0 0 0.3 1578.4619 955.0498)">
</image>
<image overflow="visible" enable-background="new    " width="422" height="63" id="msg_x5F_2_xA0_Image" xlink:href="http://13.66.226.25/dusupwallpaper/uploads/svg_templates/Information_01/D417FE07.png"  transform="matrix(0.9976 0 0 0.9841 1227.4756 262.3921)">
</image>
<rect x="1230.819" y="347.43" fill="none" width="499.229" height="48.667"/>
<text transform="matrix(1 0 0 1 1230.8193 365.4307)" fill="#FFFFFF" font-family="'HelveticaLTStd-Cond'" font-size="24">Text goes Here</text>

<rect x="1224.475" y="535.09" fill="none" width="520.477" height="79.496"/>

<rect x="1273.199" y="641.584" fill="none" width="455.024" height="110.916"/>
<text transform="matrix(1 0 0 1 1273.1992 653.584)" fill="#FFFFFF" font-family="'HelveticaLTStd-Cond'" font-size="16">Text</text>

<g>
	<g>
		<path fill="#FFFFFF" d="M1253.101,642.981v1.352h5.571v8.304c-0.255,0-0.146,0-2.184,0v1.353h3.488v-11.006L1253.101,642.981
			L1253.101,642.981z M1249.271,644.332c0.255,0,0.146,0,2.184,0v-1.352h-3.488v11.007h6.876v-1.353h-5.571V644.332
			L1249.271,644.332z"/>
	</g>
</g>
<g>
	<g>
		<path fill="#FFFFFF" d="M1253.101,697.376v1.352h5.571v8.306c-0.255,0-0.146,0-2.184,0v1.351h3.488v-11.006L1253.101,697.376
			L1253.101,697.376z M1249.271,698.727c0.255,0,0.146,0,2.184,0v-1.351h-3.488v11.006h6.876v-1.351h-5.571V698.727
			L1249.271,698.727z"/>
	</g>
</g>
<g>
	<g>
		<path fill="#FFFFFF" d="M1253.101,726.1v1.354h5.571v8.304c-0.255,0-0.146,0-2.184,0v1.353h3.488V726.1H1253.101z
			 M1249.271,727.45c0.255,0,0.146,0,2.184,0V726.1h-3.488v11.006h6.876v-1.351h-5.571V727.45L1249.271,727.45z"/>
	</g>
</g>
<image overflow="visible" enable-background="new    " width="416" height="92" id="icon_x5F_msg_xA0_Image" xlink:href="http://13.66.226.25/dusupwallpaper/uploads/svg_templates/Information_01/D417FE01.png"  transform="matrix(0.9976 0 0 0.9891 1273.9766 799.8564)">
</image>
</svg>
