<?xml version="1.0" encoding="utf-8"?>
<!-- Generator: Adobe Illustrator 16.0.0, SVG Export Plug-In . SVG Version: 6.00 Build 0)  -->
<!DOCTYPE svg PUBLIC "-//W3C//DTD SVG 1.1//EN" "http://www.w3.org/Graphics/SVG/1.1/DTD/svg11.dtd">
<svg version="1.1" xmlns="http://www.w3.org/2000/svg" xmlns:xlink="http://www.w3.org/1999/xlink" x="0px" y="0px" width="1920px"
	 height="1080px" viewBox="0 0 1920 1080" enable-background="new 0 0 1920 1080" xml:space="preserve">
<g id="Example_xA0_Image_1_">
	
		<image overflow="visible" width="1920" height="1080" xlink:href="http://13.66.226.25/dusupwallpaper/uploads/svg_templates/Guidelines_02/EB12329C.jpg"  transform="matrix(0.9999 0 0 0.9999 0.1201 0.0674)">
	</image>
	
		<image overflow="visible" width="744" height="31" id="Layer_4_xA0_Image" xlink:href="http://13.66.226.25/dusupwallpaper/uploads/svg_templates/Guidelines_02/EB12329C.png"  transform="matrix(0.9004 0 0 1 1218.1152 763.5781)">
	</image>
	<rect x="1248.578" y="508.473" fill="#FFFFFF" width="536.473" height="271.605"/>
	<rect x="1247.578" y="456.594" fill="#231F20" width="537.473" height="50.878"/>
	<text transform="matrix(1 0 0 1 1266 488)" fill="#FFFFFF" font-family="'OpenSans'" font-size="20" letter-spacing="2">TITLE TEXT</text>
	<rect x="1230" y="586" fill="none" width="492" height="49"/>
	<g>
		<text transform="matrix(1 0 0 1 1269 547.5)" fill="#6A6A6A" font-family="'HelveticaLTStd-Cond'" font-size="18">Description Goes here</text>
	
	</g>
	<g>
		<text transform="matrix(1 0 0 1 1303 640)" fill="#6A6A6A" font-family="'HelveticaLTStd-Cond'" font-size="16">Text Goes here</text>
		
	</g>
	<g>
		<g>
			<g>
				<path fill="#6A6A6A" d="M1279.096,712.648V714c3.546,0,4.941,0,5.438,0c0.054,0,0.101,0,0.135,0c0,1.079,0,7.225,0,8.304
					c-0.255,0-0.146,0-2.184,0v1.352h3.487v-11.006L1279.096,712.648L1279.096,712.648z M1275.266,722.304c0-1.08,0-7.225,0-8.305
					c0.256,0,0.146,0,2.185,0v-1.351h-3.488v11.006h6.876v-1.352c-3.546,0-4.942,0-5.436,0
					C1275.347,722.304,1275.3,722.304,1275.266,722.304z"/>
			</g>
		</g>
	</g>
	<g>
		<g>
			<g>
				<path fill="#6A6A6A" d="M1279.096,685.093v1.353c3.546,0,4.941,0,5.438,0c0.054,0,0.101,0,0.135,0c0,1.079,0,7.225,0,8.304
					c-0.255,0-0.146,0-2.184,0v1.351h3.487v-11.006L1279.096,685.093L1279.096,685.093z M1275.266,694.748c0-1.08,0-7.225,0-8.305
					c0.256,0,0.146,0,2.185,0v-1.352h-3.488v11.006h6.876v-1.351c-3.546,0-4.942,0-5.436,0
					C1275.347,694.748,1275.3,694.748,1275.266,694.748z"/>
			</g>
		</g>
	</g>
	<g>
		<g>
			<g>
				<path fill="#6A6A6A" d="M1279.096,657.537v1.352h5.571v8.305c-0.255,0-0.146,0-2.184,0v1.351h3.487v-11.006L1279.096,657.537
					L1279.096,657.537z M1275.266,658.888c0.256,0,0.146,0,2.185,0v-1.351h-3.488v11.006h6.876v-1.351h-5.571L1275.266,658.888
					L1275.266,658.888z"/>
			</g>
		</g>
	</g>
	<g>
		<g>
			<g>
				<path fill="#6A6A6A" d="M1279.096,629.981v1.352h5.571v8.304c-0.255,0-0.146,0-2.184,0v1.352h3.487v-11.006L1279.096,629.981
					L1279.096,629.981z M1275.266,631.332c0.256,0,0.146,0,2.185,0v-1.352h-3.488v11.007h6.876v-1.352h-5.571L1275.266,631.332
					L1275.266,631.332z"/>
			</g>
		</g>
	</g>
	<rect x="1251.077" y="345.601" fill="none" width="533.974" height="85.496"/>
	<text transform="matrix(1 0 0 1 1251.0771 368.1006)"><tspan x="0" y="0" fill="#6A6A6A" font-family="'HelveticaLTStd-Cond'" font-size="30">Text </tspan></text>
	
		<image overflow="visible" width="279" height="37" id="Vector_Smart_Object_xA0_Image" xlink:href="http://13.66.226.25/dusupwallpaper/uploads/svg_templates/Guidelines_02/EB12329B.png"  transform="matrix(1 0 0 1 1570 973)">
	</image>
	
		<image overflow="visible" width="146" height="129" id="Shape_2_xA0_Image" xlink:href="http://13.66.226.25/dusupwallpaper/uploads/svg_templates/Guidelines_02/EB1232A4.png"  transform="matrix(1 0 0 1 1449.459 59.9937)">
	</image>
	<g>
		
			<image overflow="visible" width="1127" height="1080" xlink:href="http://13.66.226.25/dusupwallpaper/uploads/svg_templates/Guidelines_02/EB1232A4.jpg"  transform="matrix(0.9999 0 0 0.9999 0 0.0674)">
		</image>
		<text transform="matrix(1 0 0 1 367.4424 1005.5674)" fill="#707070" font-family="'OpenSans'" font-size="14">Copyright © 2017 Dubai Supply Authority | All rights reserved.</text>
	</g>
	
		<image overflow="visible" width="362" height="52" id="Guidelines_xA0_Image" xlink:href="http://13.66.226.25/dusupwallpaper/uploads/svg_templates/Guidelines_02/EB1232A5.png"  transform="matrix(1 0 0 1 1251.0771 253.8779)">
	</image>
</g>
<g id="Layer_2">
</g>
</svg>
