<?xml version="1.0" encoding="utf-8"?>
<!-- Generator: Adobe Illustrator 16.0.0, SVG Export Plug-In . SVG Version: 6.00 Build 0)  -->
<!DOCTYPE svg PUBLIC "-//W3C//DTD SVG 1.1//EN" "http://www.w3.org/Graphics/SVG/1.1/DTD/svg11.dtd">
<svg version="1.1" id="Layer_1" xmlns="http://www.w3.org/2000/svg" xmlns:xlink="http://www.w3.org/1999/xlink" x="0px" y="0px"
	 width="1920px" height="1080px" viewBox="0 0 1920 1080" enable-background="new 0 0 1920 1080" xml:space="preserve">
<image overflow="visible" width="1920" height="1080" id="Guidelines_x5F_Sample_x5F_04_xA0_Image" xlink:href="http://13.66.226.25/dusupwallpaper/uploads/svg_templates/Guidelines_04/46896511.jpg" >
</image>
<text transform="matrix(1 0 0 1 1293.9619 548.3359)" fill="#FFFFFF" font-family="'OpenSans-Semibold'" font-size="19.9009">TITLE</text>
<g>
	<g>
		<path fill="#FFFFFF" d="M1299.096,774.648V776c3.546,0,4.941,0,5.438,0c0.054,0,0.101,0,0.135,0c0,1.079,0,7.225,0,8.304
			c-0.255,0-0.146,0-2.184,0v1.353h3.486V774.65L1299.096,774.648L1299.096,774.648z M1295.266,784.304c0-1.08,0-7.225,0-8.305
			c0.256,0,0.146,0,2.186,0v-1.351h-3.488v11.006h6.876v-1.353c-3.546,0-4.942,0-5.436,0
			C1295.347,784.304,1295.3,784.304,1295.266,784.304z"/>
	</g>
</g>
<g>
	<g>
		<path fill="#FFFFFF" d="M1299.096,747.093v1.354c3.546,0,4.941,0,5.438,0c0.054,0,0.101,0,0.135,0c0,1.079,0,7.225,0,8.304
			c-0.255,0-0.146,0-2.184,0v1.352h3.486v-11.007L1299.096,747.093L1299.096,747.093z M1295.266,756.748c0-1.08,0-7.225,0-8.305
			c0.256,0,0.146,0,2.186,0v-1.353h-3.488v11.006h6.876v-1.351c-3.546,0-4.942,0-5.436,0
			C1295.347,756.748,1295.3,756.748,1295.266,756.748z"/>
	</g>
</g>
<g>
	<g>
		<g>
			<path fill="#FFFFFF" d="M1299.096,691.981v1.352h5.571v8.304c-0.255,0-0.146,0-2.184,0v1.353h3.486v-11.006L1299.096,691.981
				L1299.096,691.981z M1295.266,693.332c0.256,0,0.146,0,2.186,0v-1.352h-3.488v11.007h6.876v-1.353h-5.571L1295.266,693.332
				L1295.266,693.332z"/>
		</g>
	</g>
</g>
<g>
	<g>
		<g>
			<path fill="#FFFFFF" d="M1299.096,719.981v1.352h5.571v8.304c-0.255,0-0.146,0-2.184,0v1.353h3.486v-11.006L1299.096,719.981
				L1299.096,719.981z M1295.266,721.332c0.256,0,0.146,0,2.186,0v-1.352h-3.488v11.007h6.876v-1.353h-5.571L1295.266,721.332
				L1295.266,721.332z"/>
		</g>
	</g>
</g>
<rect x="1273.962" y="407.601" fill="none" width="533.974" height="85.496"/>
<text transform="matrix(1 0 0 1 1273.9619 424.8809)" fill="#FFFFFF" font-family="'HelveticaLTStd-Light'" font-size="24">Text Goes Here</text>

<rect x="1293.962" y="586.985" fill="none" width="494.09" height="73.515"/>

<rect x="1318.82" y="690.779" fill="none" width="509.728" height="156.798"/>
<text transform="matrix(1 0 0 1 1318.8203 702.2988)" fill="#FFFFFF" font-family="'HelveticaLTStd-Light'" font-size="16">Text</text>

<line fill="none" stroke="#FFFFFF" stroke-width="0.5" stroke-miterlimit="10" x1="1293.962" y1="559.944" x2="1540.949" y2="559.944"/>
<rect x="1273.962" y="506.595" fill="none" stroke="#FFFFFF" stroke-width="0.5" stroke-miterlimit="10" width="568.251" height="319.484"/>
<g id="Layer_2">
</g>
<g id="Layer_3">
</g>
<g id="Layer_4">
</g>
<image overflow="visible" width="288" height="67" id="Group_5_xA0_Image" xlink:href="http://13.66.226.25/dusupwallpaper/uploads/svg_templates/Guidelines_04/46896513.png"  transform="matrix(1 0 0 1 1273.4561 298.0005)">
</image>
</svg>
