<?xml version="1.0" encoding="utf-8"?>
<!-- Generator: Adobe Illustrator 16.0.0, SVG Export Plug-In . SVG Version: 6.00 Build 0)  -->
<!DOCTYPE svg PUBLIC "-//W3C//DTD SVG 1.1//EN" "http://www.w3.org/Graphics/SVG/1.1/DTD/svg11.dtd">
<svg version="1.1" id="Layer_1" xmlns="http://www.w3.org/2000/svg" xmlns:xlink="http://www.w3.org/1999/xlink" x="0px" y="0px"
	 width="800px" height="500px" viewBox="0 0 800 500" enable-background="new 0 0 800 500" xml:space="preserve">
<image overflow="visible" width="800" height="500" id="BG_x5F_800x500_xA0_Image" xlink:href="http://13.66.226.25/dusupwallpaper/uploads/svg_templates/sample/762ADE74.jpg" >
</image>
<text transform="matrix(1 0 0 1 498.6504 253.0996)" fill="#FFFFFF" font-family="'OpenSans-Semibold'" font-size="8.4051" letter-spacing="1">Cyber Security</text>
<g>
	<g>
		<path fill="#FFFFFF" d="M500.818,348.683v0.57c1.498,0,2.087,0,2.297,0c0.021,0,0.042,0,0.057,0c0,0.456,0,3.052,0,3.507
			c-0.106,0-0.062,0-0.922,0v0.571h1.473v-4.648H500.818L500.818,348.683z M499.201,352.76c0-0.456,0-3.051,0-3.507
			c0.106,0,0.062,0,0.923,0v-0.57h-1.475v4.647h2.903v-0.57c-1.497,0-2.087,0-2.295,0C499.234,352.76,499.215,352.76,499.201,352.76
			z"/>
	</g>
</g>
<g>
	<g>
		<path fill="#FFFFFF" d="M500.818,337.044v0.571c1.498,0,2.087,0,2.297,0c0.021,0,0.042,0,0.057,0c0,0.456,0,3.051,0,3.508
			c-0.106,0-0.062,0-0.922,0v0.57h1.473v-4.649H500.818L500.818,337.044z M499.201,341.122c0-0.457,0-3.051,0-3.508
			c0.106,0,0.062,0,0.923,0v-0.571h-1.475v4.648h2.903v-0.569c-1.497,0-2.087,0-2.295,0
			C499.234,341.122,499.215,341.122,499.201,341.122z"/>
	</g>
</g>
<g>
	<g>
		<g>
			<path fill="#FFFFFF" d="M500.818,313.768v0.571h2.354v3.507c-0.107,0-0.062,0-0.923,0v0.571h1.473v-4.648L500.818,313.768
				L500.818,313.768z M499.201,314.339c0.106,0,0.062,0,0.923,0v-0.571h-1.475v4.648h2.903v-0.57H499.2L499.201,314.339
				L499.201,314.339z"/>
		</g>
	</g>
</g>
<rect x="490.203" y="193.66" fill="none" width="225.522" height="20.904"/>
<text transform="matrix(1 0 0 1 490.2041 200.957)" fill="#FFFFFF" font-family="'HelveticaLTStd-Light'" font-size="10.1364">Beware of Spam Emails, never open email that </text>
<text transform="matrix(1 0 0 1 490.2041 213.1211)" fill="#FFFFFF" font-family="'HelveticaLTStd-Light'" font-size="10.1364">you are not expected in your inbox.</text>
<rect x="498.65" y="269.422" fill="none" width="208.678" height="31.049"/>
<text transform="matrix(1 0 0 1 498.6504 274.8955)" fill="#FFFFFF" font-family="'HelveticaLTStd-Light'" font-size="7.6023">If you are getting emails in your inbox that are are not expected </text>
<text transform="matrix(1 0 0 1 498.6504 286.6289)" fill="#FFFFFF" font-family="'HelveticaLTStd-Light'" font-size="7.6023">by you to receive it, never open it. Be caustious and think twice </text>
<text transform="matrix(1 0 0 1 498.6504 298.3623)" fill="#FFFFFF" font-family="'HelveticaLTStd-Light'" font-size="7.6023">before opening an email attachment which may contain virus.</text>
<rect x="509.149" y="313.26" fill="none" width="215.282" height="45.738"/>
<text transform="matrix(1 0 0 1 509.1494 318.125)" fill="#FFFFFF" font-family="'HelveticaLTStd-Light'" font-size="6.7576">You may thing that this email was sent to you by mistake and it has some </text>
<text transform="matrix(1 0 0 1 509.1494 329.8584)" fill="#FFFFFF" font-family="'HelveticaLTStd-Light'" font-size="6.7576">confdential information in it.</text>
<text transform="matrix(1 0 0 1 509.1494 341.5928)" fill="#FFFFFF" font-family="'HelveticaLTStd-Light'" font-size="6.7576">If you feel an email is suspicious, please report it to IT Helpdesk. </text>
<text transform="matrix(1 0 0 1 509.1494 353.3262)" fill="#FFFFFF" font-family="'HelveticaLTStd-Light'" font-size="6.7576">For further details, please follow the belo links.</text>
<rect x="490.203" y="235.47" fill="none" stroke="#FFFFFF" stroke-width="0.5" stroke-miterlimit="10" width="240" height="178.946"/>
<g id="Layer_2">
</g>
<image overflow="visible" width="279" height="37" id="Dusup_x5F_Logo_x5F_white_xA0_Image" xlink:href="http://13.66.226.25/dusupwallpaper/uploads/svg_templates/sample/762ADE74.png"  transform="matrix(0.3903 0 0 0.3903 676.1572 460.2656)">
</image>
<image overflow="visible" width="318" height="67" id="Group_3_xA0_Image" xlink:href="http://13.66.226.25/dusupwallpaper/uploads/svg_templates/sample/762ADE73.png"  transform="matrix(0.4166 0 0 0.4166 490.2041 148)">
</image>
<image overflow="visible" width="410" height="101" id="asd_xA0_Image" xlink:href="http://13.66.226.25/dusupwallpaper/uploads/svg_templates/sample/762ADE7C.png"  transform="matrix(0.4591 0 0 0.4591 508.6484 361.8037)">
</image>
</svg>
