<?xml version="1.0" encoding="utf-8"?>
<!-- Generator: Adobe Illustrator 16.0.0, SVG Export Plug-In . SVG Version: 6.00 Build 0)  -->
<!DOCTYPE svg PUBLIC "-//W3C//DTD SVG 1.1//EN" "http://www.w3.org/Graphics/SVG/1.1/DTD/svg11.dtd">
<svg version="1.1" id="Layer_1" xmlns="http://www.w3.org/2000/svg" xmlns:xlink="http://www.w3.org/1999/xlink" x="0px" y="0px"
	 width="800px" height="450px" viewBox="0 0 800 450" enable-background="new 0 0 800 450" xml:space="preserve">
<g>
	
		<image overflow="visible" width="1920" height="1080" id="Layer_173_xA0_Image_1_" xlink:href="http://13.66.226.25/dusupwallpaper/uploads/svg_templates/resize/42E25FE6.jpg"  transform="matrix(0.4167 0 0 0.4167 0 0)">
	</image>
	<text transform="matrix(1 0 0 1 539.1504 228.4736)" fill="#FFFFFF" font-family="'OpenSans-Semibold'" font-size="8.2921">Cyber Security</text>
	<g>
		<g>
			<path fill="#FFFFFF" d="M541.29,322.771v0.563c1.478,0,2.059,0,2.266,0c0.022,0,0.042,0,0.056,0c0,0.45,0,3.011,0,3.46
				c-0.105,0-0.061,0-0.909,0v0.563h1.453v-4.586H541.29L541.29,322.771z M539.694,326.793c0-0.45,0-3.01,0-3.46
				c0.106,0,0.061,0,0.91,0v-0.563h-1.454v4.585h2.865v-0.563c-1.478,0-2.06,0-2.265,0
				C539.728,326.793,539.708,326.793,539.694,326.793z"/>
		</g>
	</g>
	<g>
		<g>
			<path fill="#FFFFFF" d="M541.29,311.289v0.563c1.478,0,2.059,0,2.266,0c0.022,0,0.042,0,0.056,0c0,0.449,0,3.01,0,3.46
				c-0.105,0-0.061,0-0.909,0v0.563h1.453v-4.586H541.29L541.29,311.289z M539.694,315.312c0-0.45,0-3.01,0-3.46
				c0.106,0,0.061,0,0.91,0v-0.563h-1.454v4.586h2.865v-0.563c-1.478,0-2.06,0-2.265,0
				C539.728,315.312,539.708,315.312,539.694,315.312z"/>
		</g>
	</g>
	<g>
		<g>
			<g>
				<path fill="#FFFFFF" d="M541.29,288.325v0.563h2.321v3.46c-0.106,0-0.061,0-0.91,0v0.563h1.453v-4.586L541.29,288.325
					L541.29,288.325z M539.694,288.889c0.106,0,0.061,0,0.91,0v-0.563h-1.454v4.586h2.865v-0.563h-2.321V288.889L539.694,288.889z"
					/>
			</g>
		</g>
	</g>
	<rect x="530.817" y="169.833" fill="none" width="222.489" height="20.623"/>
	<text transform="matrix(1 0 0 1 530.8174 177.0332)"><tspan x="0" y="0" fill="#FFFFFF" font-family="'HelveticaLTStd-Light'" font-size="10">Beware of Spam Emails, never open email that </tspan><tspan x="0" y="12" fill="#FFFFFF" font-family="'HelveticaLTStd-Light'" font-size="10">you are not expected in your inbox.</tspan></text>
	<rect x="539.15" y="244.577" fill="none" width="205.871" height="30.631"/>
	<text transform="matrix(1 0 0 1 539.1514 249.9766)"><tspan x="0" y="0" fill="#FFFFFF" font-family="'HelveticaLTStd-Light'" font-size="7.5">If you are getting emails in your inbox that are are not expected </tspan><tspan x="0" y="11.576" fill="#FFFFFF" font-family="'HelveticaLTStd-Light'" font-size="7.5">by you to receive it, never open it. Be caustious and think twice </tspan><tspan x="0" y="23.152" fill="#FFFFFF" font-family="'HelveticaLTStd-Light'" font-size="7.5">before opening an email attachment which may contain virus.</tspan></text>
	<rect x="549.509" y="287.824" fill="none" width="212.386" height="45.124"/>
	<text transform="matrix(1 0 0 1 549.5088 292.624)"><tspan x="0" y="0" fill="#FFFFFF" font-family="'HelveticaLTStd-Light'" font-size="6.6667">You may thing that this email was sent to you by mistake and it has some </tspan><tspan x="0" y="11.576" fill="#FFFFFF" font-family="'HelveticaLTStd-Light'" font-size="6.6667">confdential information in it.</tspan><tspan x="0" y="23.151" fill="#FFFFFF" font-family="'HelveticaLTStd-Light'" font-size="6.6667">If you feel an email is suspicious, please report it to IT Helpdesk. </tspan><tspan x="0" y="34.728" fill="#FFFFFF" font-family="'HelveticaLTStd-Light'" font-size="6.6667">For further details, please follow the belo links.</tspan></text>
	
		<line fill="none" stroke="#FFFFFF" stroke-width="0.5" stroke-miterlimit="10" x1="539.15" y1="233.311" x2="619.873" y2="233.311"/>
	<g>
		<path fill="#FFFFFF" stroke="#030303" stroke-width="0.216" stroke-miterlimit="2.6131" d="M677.883,416.657v13.331h29.463v-1.636
			c-10.577,0-26.774,0-27.827,0c0-1.308,0-8.751,0-10.059c0.313,0,1.979,0,4.439,0v-1.637H677.883z"/>
		<path fill="#FFFFFF" stroke="#030303" stroke-width="0.216" stroke-miterlimit="2.6131" d="M688.358,416.657v1.637
			c10.575,0,26.939,0,27.994,0c0,1.308,0,8.751,0,10.059c-0.319,0-2.05,0-4.605,0v1.636h6.243v-13.331H688.358z"/>
		<path fill="#FFFFFF" d="M686.895,416.631h-1.619v3.433h-4.023v1.537h0.012v4.983h5.524v-0.003h0.106V416.631L686.895,416.631z
			 M682.884,421.601L682.884,421.601h2.392v3.449h-2.392V421.601z"/>
		<path fill="#FFFFFF" d="M708.755,430.048h1.622v-3.435h4.024v-1.534h-0.015v-4.985h-5.524v0.002h-0.107V430.048L708.755,430.048z
			 M712.77,425.079L712.77,425.079h-2.393v-3.451h2.393V425.079z"/>
		<polygon fill="#FFFFFF" points="693.81,420.048 692.186,420.048 692.186,425.115 689.998,425.115 689.998,420.048 688.38,420.048 
			688.38,426.567 688.452,426.567 688.452,426.568 693.724,426.568 693.724,426.567 693.81,426.567 		"/>
		<polygon fill="#FFFFFF" points="707.271,420.048 705.652,420.048 705.652,425.115 703.466,425.115 703.466,420.048 
			701.844,420.048 701.844,426.567 701.916,426.567 701.916,426.568 707.188,426.568 707.188,426.567 707.271,426.567 		"/>
		<polygon fill="#FFFFFF" points="696.999,421.775 700.361,421.775 700.361,420.048 695.29,420.048 695.29,423.879 698.654,423.879 
			698.654,425.098 695.29,425.098 695.29,426.518 700.361,426.518 700.361,422.458 696.999,422.458 		"/>
		<g>
			<path fill="#FFFFFF" d="M721.737,425.199h0.4h1.246c0.527,0,0.929,0.144,1.203,0.426c0.275,0.285,0.413,0.699,0.413,1.246
				c0,0.601-0.142,1.059-0.428,1.373c-0.286,0.313-0.704,0.469-1.254,0.469h-1.181h-0.4V425.199L721.737,425.199z M722.539,428.109
				L722.539,428.109h0.68c0.326,0,0.57-0.101,0.734-0.303c0.163-0.201,0.245-0.504,0.245-0.907c0-0.366-0.076-0.639-0.229-0.822
				c-0.152-0.183-0.38-0.273-0.687-0.273h-0.744V428.109z"/>
			<path fill="#FFFFFF" d="M726.301,427.742c0,0.158,0.036,0.276,0.111,0.353s0.191,0.115,0.346,0.115
				c0.196,0,0.347-0.056,0.451-0.163c0.105-0.107,0.157-0.264,0.157-0.469v-1.464h0.373h0.378v2.599h-0.356h-0.358v-0.39
				c-0.026,0.048-0.057,0.093-0.094,0.134c-0.186,0.216-0.453,0.323-0.803,0.323c-0.302,0-0.534-0.081-0.703-0.243
				c-0.168-0.162-0.252-0.385-0.252-0.673v-1.75h0.373h0.377V427.742z"/>
			<path fill="#FFFFFF" d="M728.798,425.203h0.374h0.375v1.252l0.017-0.02c0.202-0.259,0.468-0.389,0.8-0.389
				c0.361,0,0.651,0.121,0.871,0.364c0.219,0.243,0.329,0.563,0.329,0.962c0,0.422-0.11,0.762-0.329,1.02
				c-0.22,0.259-0.51,0.388-0.871,0.388c-0.329,0-0.596-0.122-0.8-0.362l-0.032-0.039v0.334h-0.733V425.203L728.798,425.203z
				 M730.149,428.214L730.149,428.214c0.202,0,0.36-0.068,0.474-0.205c0.114-0.138,0.17-0.329,0.17-0.574
				c0-0.25-0.056-0.444-0.17-0.585c-0.113-0.142-0.271-0.211-0.471-0.211s-0.357,0.073-0.471,0.217
				c-0.113,0.145-0.171,0.346-0.171,0.603c0,0.237,0.058,0.423,0.171,0.556C729.793,428.148,729.949,428.214,730.149,428.214z"/>
			<path fill="#FFFFFF" d="M732.771,428.78c-0.263,0-0.475-0.069-0.635-0.208c-0.161-0.138-0.24-0.319-0.24-0.543
				c0-0.236,0.072-0.427,0.216-0.57c0.146-0.143,0.356-0.231,0.633-0.267l0.494-0.063c0.129-0.015,0.235-0.043,0.321-0.081
				c0.035-0.016,0.065-0.043,0.085-0.086c0.02-0.041,0.026-0.083,0.021-0.126c-0.01-0.071-0.052-0.129-0.122-0.171
				c-0.086-0.049-0.207-0.072-0.367-0.072c-0.143,0-0.256,0.03-0.335,0.095c-0.081,0.063-0.124,0.152-0.128,0.268h-0.72
				c0.016-0.304,0.129-0.532,0.341-0.683c0.211-0.15,0.52-0.226,0.928-0.226c0.354,0,0.634,0.067,0.839,0.203
				c0.204,0.137,0.307,0.323,0.307,0.559v1.452c0,0.116,0.01,0.199,0.03,0.244c0.022,0.049,0.063,0.086,0.127,0.11v0.004v0.094
				h-0.406h-0.405v-0.002c-0.033-0.105-0.056-0.209-0.065-0.309l-0.003-0.005C733.45,428.651,733.146,428.78,732.771,428.78
				L732.771,428.78z M733.673,427.752L733.673,427.752v-0.298c-0.087,0.044-0.202,0.08-0.344,0.107l-0.277,0.048
				c-0.132,0.022-0.23,0.064-0.299,0.123c-0.067,0.059-0.102,0.135-0.102,0.225c0,0.104,0.03,0.185,0.091,0.244
				c0.061,0.059,0.146,0.088,0.257,0.088c0.24,0,0.432-0.077,0.574-0.231c0.028-0.03,0.052-0.074,0.071-0.133
				C733.664,427.864,733.673,427.809,733.673,427.752z"/>
			<path fill="#FFFFFF" d="M735.09,425.176h0.763v0.636h-0.763V425.176L735.09,425.176z M735.098,426.114L735.098,426.114h0.374
				h0.376v2.599h-0.374h-0.376V426.114z"/>
			<path fill="#FFFFFF" d="M740.189,426.257c-0.014-0.168-0.094-0.302-0.24-0.399c-0.147-0.099-0.338-0.146-0.573-0.146
				c-0.204,0-0.363,0.041-0.479,0.122c-0.114,0.083-0.171,0.196-0.171,0.344c0,0.104,0.06,0.188,0.179,0.244
				s0.371,0.125,0.758,0.202c0.559,0.116,0.934,0.248,1.122,0.396c0.188,0.149,0.282,0.388,0.282,0.716
				c0,0.329-0.143,0.592-0.427,0.782c-0.283,0.195-0.668,0.292-1.153,0.292c-0.486,0-0.866-0.102-1.141-0.308
				c-0.272-0.206-0.42-0.499-0.438-0.877h0.773c0.01,0.188,0.084,0.33,0.223,0.432c0.14,0.1,0.334,0.149,0.584,0.149
				c0.256,0,0.456-0.038,0.601-0.113c0.144-0.076,0.216-0.18,0.216-0.314c0-0.132-0.052-0.229-0.153-0.293
				c-0.102-0.062-0.318-0.126-0.65-0.192c-0.609-0.124-1.019-0.259-1.224-0.404c-0.205-0.144-0.306-0.368-0.306-0.671
				c0-0.342,0.135-0.611,0.404-0.812c0.271-0.199,0.636-0.301,1.096-0.301c0.431,0,0.781,0.104,1.052,0.313
				c0.271,0.206,0.42,0.485,0.45,0.839H740.189z"/>
			<path fill="#FFFFFF" d="M742.372,427.742c0,0.158,0.037,0.276,0.112,0.353c0.074,0.076,0.19,0.115,0.346,0.115
				c0.195,0,0.346-0.056,0.45-0.163c0.105-0.107,0.158-0.264,0.158-0.469v-1.464h0.372h0.377v2.599h-0.355h-0.357v-0.39
				c-0.026,0.048-0.058,0.093-0.094,0.134c-0.186,0.216-0.453,0.323-0.803,0.323c-0.301,0-0.534-0.081-0.703-0.243
				c-0.168-0.162-0.253-0.385-0.253-0.673v-1.75h0.374h0.376V427.742z"/>
			<path fill="#FFFFFF" d="M744.875,426.114h0.355h0.358v0.386l0.048-0.066c0.203-0.257,0.47-0.387,0.801-0.387
				c0.361,0,0.65,0.121,0.869,0.364c0.22,0.243,0.33,0.563,0.33,0.962c0,0.422-0.11,0.762-0.33,1.02
				c-0.219,0.259-0.508,0.388-0.869,0.388c-0.329,0-0.596-0.122-0.798-0.364l-0.015-0.019v1.334h-0.373h-0.377V426.114
				L744.875,426.114z M746.225,428.214L746.225,428.214c0.2,0,0.356-0.068,0.47-0.205c0.113-0.138,0.17-0.329,0.17-0.574
				c0-0.25-0.056-0.444-0.169-0.585c-0.111-0.142-0.269-0.211-0.469-0.211s-0.356,0.073-0.47,0.217
				c-0.112,0.145-0.168,0.346-0.168,0.603c0,0.237,0.056,0.423,0.168,0.556C745.87,428.148,746.025,428.214,746.225,428.214z"/>
			<path fill="#FFFFFF" d="M748.146,426.114h0.356h0.357v0.386l0.05-0.066c0.201-0.257,0.469-0.387,0.8-0.387
				c0.361,0,0.649,0.121,0.868,0.364c0.221,0.243,0.33,0.563,0.33,0.962c0,0.422-0.109,0.762-0.33,1.02
				c-0.219,0.259-0.507,0.388-0.868,0.388c-0.33,0-0.596-0.122-0.798-0.364l-0.016-0.019v1.334h-0.373h-0.377V426.114
				L748.146,426.114z M749.496,428.214L749.496,428.214c0.2,0,0.357-0.068,0.47-0.205c0.113-0.138,0.171-0.329,0.171-0.574
				c0-0.25-0.057-0.444-0.168-0.585c-0.114-0.142-0.27-0.211-0.47-0.211c-0.201,0-0.357,0.073-0.47,0.217
				c-0.112,0.145-0.169,0.346-0.169,0.603c0,0.237,0.057,0.423,0.169,0.556C749.142,428.148,749.297,428.214,749.496,428.214z"/>
			<polygon fill="#FFFFFF" points="751.454,425.203 751.828,425.203 752.205,425.203 752.205,428.713 751.831,428.713 
				751.454,428.713 			"/>
			<path fill="#FFFFFF" d="M754.441,428.769c-0.165,0.438-0.305,0.712-0.422,0.823c-0.116,0.111-0.325,0.167-0.624,0.167
				l-0.358-0.006v-0.552c0.018,0.008,0.065,0.011,0.145,0.011c0.199,0,0.329-0.037,0.391-0.112c0.039-0.048,0.077-0.146,0.115-0.296
				l-1.061-2.689h0.412h0.416l0.62,1.93l0.601-1.93h0.394h0.392L754.441,428.769z"/>
			<path fill="#FFFFFF" d="M758.509,425.199h0.466h0.466l1.358,3.514h-0.426h-0.426l-0.259-0.716h-1.456l-0.255,0.716h-0.413h-0.416
				L758.509,425.199L758.509,425.199z M758.454,427.394L758.454,427.394h1.021l-0.511-1.412L758.454,427.394z"/>
			<path fill="#FFFFFF" d="M762.012,427.742c0,0.158,0.038,0.276,0.113,0.353s0.189,0.115,0.345,0.115
				c0.196,0,0.347-0.056,0.45-0.163c0.105-0.107,0.158-0.264,0.158-0.469v-1.464h0.373h0.376v2.599h-0.355h-0.358v-0.39
				c-0.025,0.048-0.056,0.093-0.093,0.134c-0.186,0.216-0.453,0.323-0.804,0.323c-0.3,0-0.534-0.081-0.702-0.243
				c-0.169-0.162-0.253-0.385-0.253-0.673v-1.75h0.373h0.377V427.742z"/>
			<path fill="#FFFFFF" d="M765.833,428.728c-0.124,0.01-0.278,0.014-0.461,0.014c-0.265,0-0.454-0.044-0.571-0.13
				c-0.115-0.087-0.174-0.229-0.174-0.427v-1.589h-0.394v-0.481h0.394v-0.699h0.75v0.699h0.456v0.481h-0.456v1.473
				c0,0.061,0.02,0.101,0.06,0.119c0.038,0.021,0.12,0.03,0.244,0.03h0.152V428.728z"/>
			<path fill="#FFFFFF" d="M766.313,425.203h0.373h0.377v1.242l0.059-0.077c0.187-0.214,0.454-0.321,0.806-0.321
				c0.301,0,0.536,0.08,0.706,0.243s0.256,0.388,0.256,0.675v1.748h-0.373h-0.376v-1.624c0-0.16-0.038-0.279-0.115-0.356
				c-0.075-0.077-0.192-0.116-0.35-0.116c-0.198,0-0.35,0.054-0.455,0.163c-0.106,0.109-0.157,0.265-0.157,0.468v1.466h-0.375
				h-0.375V425.203z"/>
			<path fill="#FFFFFF" d="M769.813,428.413c-0.263-0.242-0.395-0.571-0.395-0.985c0-0.423,0.132-0.759,0.395-1.007
				c0.262-0.251,0.615-0.374,1.059-0.374c0.449,0,0.804,0.123,1.064,0.374c0.262,0.248,0.394,0.584,0.394,1.007
				c0,0.414-0.132,0.743-0.394,0.985c-0.261,0.245-0.615,0.367-1.064,0.367C770.428,428.78,770.074,428.658,769.813,428.413
				L769.813,428.413z M771.382,428.006L771.382,428.006c0.116-0.134,0.175-0.329,0.175-0.584c0-0.264-0.059-0.463-0.175-0.598
				c-0.117-0.137-0.286-0.205-0.511-0.205c-0.222,0-0.391,0.068-0.508,0.205c-0.114,0.135-0.174,0.334-0.174,0.598
				c0,0.255,0.06,0.45,0.174,0.584c0.117,0.134,0.286,0.2,0.508,0.2C771.096,428.206,771.265,428.14,771.382,428.006z"/>
			<path fill="#FFFFFF" d="M772.851,426.114h0.354h0.357v0.467c0.027-0.051,0.057-0.101,0.09-0.148
				c0.177-0.259,0.404-0.386,0.684-0.386l0.171,0.002v0.699c-0.066-0.007-0.142-0.01-0.225-0.01c-0.229,0-0.4,0.051-0.513,0.155
				c-0.113,0.103-0.17,0.261-0.17,0.472v1.348h-0.374h-0.375V426.114z"/>
			<path fill="#FFFFFF" d="M774.963,425.176h0.764v0.636h-0.764V425.176L774.963,425.176z M774.971,426.114L774.971,426.114h0.374
				h0.375v2.599h-0.372h-0.377V426.114z"/>
			<path fill="#FFFFFF" d="M777.734,428.728c-0.125,0.01-0.279,0.014-0.462,0.014c-0.265,0-0.454-0.044-0.571-0.13
				c-0.115-0.087-0.174-0.229-0.174-0.427v-1.589h-0.394v-0.481h0.394v-0.699h0.75v0.699h0.457v0.481h-0.457v1.473
				c0,0.061,0.02,0.101,0.06,0.119c0.038,0.021,0.12,0.03,0.243,0.03h0.154V428.728z"/>
			<path fill="#FFFFFF" d="M779.733,428.769c-0.165,0.438-0.305,0.712-0.422,0.823s-0.325,0.167-0.625,0.167l-0.358-0.006v-0.552
				c0.018,0.008,0.066,0.011,0.144,0.011c0.201,0,0.331-0.037,0.393-0.112c0.038-0.048,0.076-0.146,0.115-0.296l-1.062-2.689h0.414
				h0.414l0.621,1.93l0.6-1.93h0.394h0.393L779.733,428.769z"/>
			<path fill="#FFFFFF" d="M723.327,418.781l0.289-0.336h0.048c0.117,0.132,0.23,0.244,0.337,0.336h0.064
				c0.149-0.171,0.254-0.3,0.313-0.386v-0.097l-0.401-0.36c-0.015-0.006-0.029-0.009-0.04-0.009c-0.037,0-0.071,0.024-0.104,0.072
				s-0.053,0.076-0.064,0.081c-0.043,0.08-0.092,0.121-0.145,0.121c-0.048,0-0.121-0.045-0.221-0.138
				c-0.099-0.091-0.173-0.137-0.22-0.137l-0.32,0.396C723.045,418.542,723.2,418.695,723.327,418.781L723.327,418.781z
				 M725.02,418.645c0.178,0.075,0.319,0.286,0.425,0.633c0.091,0.311,0.112,0.667,0.064,1.074
				c-0.091,0.193-0.331,0.334-0.722,0.425c-0.792,0.074-1.272,0.112-1.444,0.112c-0.475,0-0.862-0.074-1.163-0.226
				c-0.33-0.165-0.48-0.439-0.448-0.825c0.026-0.287,0.147-0.588,0.361-0.896c0.005,0,0.019-0.008,0.04-0.024
				c0.021-0.005,0.037-0.005,0.047,0c-0.004,0.049-0.021,0.14-0.049,0.272c-0.022,0.112-0.033,0.2-0.033,0.266
				c0,0.134,0.04,0.243,0.121,0.328c0.225,0.235,0.591,0.354,1.1,0.354c0.079,0,0.2-0.004,0.361-0.011
				c0.159-0.007,0.277-0.011,0.353-0.011c0.182-0.02,0.364-0.042,0.546-0.062c0.208-0.033,0.378-0.084,0.506-0.153
				c-0.017-0.096-0.075-0.205-0.177-0.329c-0.145-0.169-0.225-0.269-0.24-0.295C724.736,419.128,724.854,418.917,725.02,418.645
				L725.02,418.645L725.02,418.645z M726.743,418.02L726.743,418.02c-0.047-0.576-0.074-0.99-0.079-1.241
				c0-0.054-0.021-0.07-0.064-0.048c-0.097,0.117-0.195,0.234-0.297,0.352c-0.111,0.14-0.168,0.271-0.168,0.4
				c0.005,0.273,0.04,0.735,0.104,1.387c0.054,0.573,0.074,1.032,0.064,1.38c0,0.078,0.016,0.128,0.049,0.143
				c0.251-0.31,0.397-0.531,0.441-0.665c0.009-0.155,0.015-0.312,0.015-0.472C726.809,418.961,726.787,418.55,726.743,418.02
				L726.743,418.02z M728.552,417.385L728.552,417.385c-0.117-0.048-0.232-0.096-0.345-0.145c-0.134-0.053-0.251-0.083-0.354-0.088
				c-0.111,0.23-0.181,0.411-0.208,0.546c0.16,0.08,0.391,0.171,0.689,0.272C728.415,417.848,728.488,417.653,728.552,417.385
				L728.552,417.385z M732.313,420.875L732.313,420.875c-0.037,0-0.071,0.023-0.104,0.07c-0.033,0.049-0.053,0.077-0.065,0.082
				c-0.042,0.08-0.091,0.119-0.144,0.119c-0.047,0-0.122-0.043-0.221-0.132c-0.099-0.088-0.176-0.132-0.229-0.132l-0.312,0.392
				c0.181,0.214,0.336,0.363,0.465,0.448l0.288-0.335h0.048c0.118,0.132,0.23,0.245,0.337,0.335h0.064
				c0.145-0.171,0.249-0.299,0.313-0.385v-0.096l-0.4-0.359C732.338,420.878,732.324,420.875,732.313,420.875L732.313,420.875z
				 M738.763,420.883L738.763,420.883h-0.095l-0.281,0.416v0.089l0.57,0.29h0.104c0.105-0.14,0.192-0.294,0.256-0.466
				c-0.063-0.032-0.155-0.087-0.275-0.165C738.919,420.969,738.827,420.914,738.763,420.883L738.763,420.883z M743.567,417.569
				L743.567,417.569l0.297-0.336h0.047c0.118,0.139,0.231,0.252,0.338,0.336h0.065c0.144-0.171,0.248-0.296,0.313-0.377v-0.104
				l-0.401-0.362c-0.017-0.005-0.033-0.007-0.049-0.007c-0.031,0-0.065,0.023-0.097,0.073c-0.032,0.048-0.052,0.074-0.063,0.079
				c-0.043,0.081-0.091,0.121-0.145,0.121c-0.048,0-0.122-0.046-0.221-0.137c-0.099-0.092-0.175-0.137-0.229-0.137l-0.313,0.405
				C743.293,417.34,743.444,417.489,743.567,417.569L743.567,417.569z M751.681,417.089c0.011,0.129,0.023,0.255,0.039,0.378
				c0.015,0.348,0.022,1.269,0.022,2.758c-0.063,0.092-0.17,0.141-0.32,0.146h-1.826v-0.02h-1.377v-0.05
				c-0.061,0.038-0.133,0.065-0.227,0.069h-1.825v-0.02h-1.373v-0.058c-0.003,0.003-0.005,0.005-0.008,0.007
				c-0.042,0.029-0.067,0.048-0.071,0.051h-8.461c0.106,0.108,0.142,0.221,0.104,0.338c-0.048,0.187-0.094,0.373-0.137,0.561
				c-0.063,0.207-0.158,0.366-0.281,0.473c-0.267,0.017-0.509-0.119-0.722-0.401c-0.102-0.145-0.22-0.452-0.354-0.93
				c-0.127-0.038-0.323-0.051-0.58-0.042v0.002h-1.465v-0.067c-0.006,0.005-0.01,0.011-0.018,0.017
				c-0.043,0.029-0.067,0.048-0.073,0.051h-3.514c-0.059,0.629-0.351,1.149-0.88,1.561c-0.113,0.068-0.241,0.104-0.385,0.104
				c-0.183,0-0.34-0.049-0.474-0.146c-0.396-0.273-0.621-0.575-0.674-0.906l0.017-0.019c0.304,0.225,0.604,0.338,0.898,0.338
				c0.074,0,0.149-0.008,0.225-0.023c0.342-0.07,0.645-0.366,0.906-0.891c-0.016,0-0.011-0.01,0.017-0.032
				c-0.006-0.135-0.073-0.275-0.201-0.424c-0.107-0.13-0.217-0.258-0.33-0.387c0.102-0.283,0.21-0.513,0.321-0.689
				c0.112,0.027,0.209,0.107,0.289,0.24c0.054,0.117,0.11,0.235,0.168,0.354c0.021,0.061,0.031,0.123,0.047,0.185h1.34v-0.007h1.846
				c0.025-0.02,0.031-0.055,0.016-0.104c-0.021-0.063-0.032-0.098-0.032-0.104l-0.313-0.503l0.016-0.063l0.377-0.606
				c0.097,0.025,0.171,0.097,0.225,0.216c0.037,0.102,0.075,0.203,0.112,0.306c0.08,0.339,0.131,0.628,0.15,0.864h1.389
				c0.212-0.001,0.339-0.004,0.373-0.008c0.181-0.016,0.302-0.077,0.359-0.181c0.061-0.104,0.169-0.353,0.33-0.75
				c0.134-0.314,0.267-0.557,0.4-0.728c0.08-0.08,0.161-0.12,0.24-0.12c0.07,0,0.11,0.04,0.122,0.12
				c0.111,0.325,0.167,0.625,0.167,0.897c0,0.298-0.072,0.542-0.218,0.729c0.091,0.039,0.375,0.052,0.835,0.041v-0.009h2.84
				c0.031-0.004,0.078-0.026,0.137-0.063c-0.049-0.095-0.22-0.267-0.514-0.514c-0.197-0.175-0.443-0.262-0.738-0.262
				c-0.198,0-0.38,0.044-0.545,0.132c-0.017-0.012-0.025-0.067-0.025-0.166c0.273-0.354,0.581-0.528,0.923-0.528
				c0.07,0,0.142,0.007,0.217,0.023c0.257,0.058,0.528,0.215,0.819,0.47l0.704,0.702c0.145,0.138,0.311,0.206,0.497,0.206v0.007
				h1.275v-0.007h1.846c0.026-0.02,0.031-0.056,0.015-0.104c-0.021-0.063-0.03-0.098-0.03-0.104l-0.313-0.503l0.016-0.064
				l0.378-0.606c0.095,0.026,0.17,0.099,0.224,0.218c0.037,0.1,0.075,0.202,0.112,0.305c0.08,0.34,0.131,0.629,0.151,0.865h1.378
				v0.01h1.536l0.049-0.087c-0.005-0.28-0.032-0.656-0.078-1.128c-0.047-0.558-0.075-0.934-0.085-1.127l0.465-0.53
				c0.048,0.074,0.083,0.186,0.104,0.336c0.01,0.129,0.023,0.255,0.04,0.378c0.013,0.296,0.021,1.015,0.021,2.148h1.374v0.01h1.542
				l0.048-0.087c-0.006-0.28-0.031-0.656-0.077-1.128c-0.047-0.558-0.076-0.934-0.086-1.127l0.465-0.53
				C751.623,416.827,751.658,416.938,751.681,417.089L751.681,417.089L751.681,417.089z M735.307,419.206
				c-0.059,0.102-0.088,0.188-0.088,0.257c0.117-0.016,0.235-0.035,0.353-0.057c0.118-0.021,0.214-0.063,0.289-0.129
				c0.011-0.139-0.012-0.32-0.064-0.547l-0.063-0.11c-0.065,0.022-0.119,0.067-0.165,0.137c-0.045,0.069-0.09,0.14-0.133,0.208
				C735.425,418.986,735.381,419.066,735.307,419.206L735.307,419.206L735.307,419.206z M735.98,420.964
				c0.053-0.012,0.079-0.089,0.079-0.234c-0.068-0.204-0.25-0.362-0.544-0.48c-0.017,0-0.059-0.005-0.124-0.018
				c-0.067-0.01-0.117-0.012-0.148-0.007c0.002,0.086,0.002,0.127,0,0.127C735.473,420.775,735.718,420.979,735.98,420.964
				L735.98,420.964L735.98,420.964z M755.872,422.443L755.872,422.443c-0.044,0-0.081,0.039-0.116,0.117s-0.068,0.119-0.102,0.125
				c-0.229-0.088-0.407-0.169-0.537-0.242c-0.016,0.012-0.051,0.064-0.103,0.159c-0.054,0.096-0.081,0.15-0.081,0.167v0.016
				c0.172,0.115,0.334,0.205,0.488,0.271c0.012,0.005,0.022,0.008,0.033,0.008c0.031,0,0.067-0.038,0.107-0.113
				c0.041-0.075,0.079-0.112,0.116-0.112c0.026,0,0.193,0.074,0.497,0.226c0.039,0,0.087-0.057,0.145-0.168
				c0.043-0.092,0.067-0.156,0.072-0.193c-0.043-0.039-0.135-0.092-0.276-0.158S755.894,422.443,755.872,422.443L755.872,422.443z
				 M761.12,418.445L761.12,418.445c-0.054-0.119-0.129-0.19-0.225-0.216l-0.377,0.606l-0.016,0.063l0.313,0.503
				c0,0.006,0.01,0.041,0.032,0.104c0.016,0.049,0.01,0.084-0.016,0.104h-1.846v0.007h-1.639c-0.358,0-0.676,0.072-0.955,0.217
				c-0.342,0.174-0.514,0.424-0.514,0.743c0,0.15,0.11,0.285,0.33,0.409c0.171,0.079,0.342,0.159,0.513,0.238
				c-0.112,0.092-0.222,0.159-0.329,0.201c-0.255,0.112-0.531,0.17-0.824,0.17c-0.621,0-0.931-0.289-0.931-0.866
				c0-0.122,0.044-0.321,0.132-0.601c0.088-0.277,0.132-0.407,0.132-0.393c0-0.036-0.017-0.055-0.048-0.055
				c-0.107,0-0.23,0.205-0.369,0.617c-0.123,0.374-0.185,0.644-0.185,0.811c0,0.389,0.086,0.699,0.258,0.929
				c0.191,0.257,0.48,0.386,0.864,0.386c0.406,0,0.826-0.132,1.26-0.393c0.481-0.293,0.723-0.629,0.723-1.007
				c0-0.176-0.009-0.282-0.025-0.32c-0.041-0.08-0.154-0.149-0.337-0.207c-0.127-0.044-0.255-0.084-0.384-0.12
				c0.149-0.012,0.508-0.016,1.074-0.016c0.004,0,0.009-0.005,0.012-0.008h3.472c0.006-0.003,0.029-0.021,0.073-0.051
				c0.041-0.029,0.066-0.061,0.071-0.092c0.021-0.119,0.032-0.243,0.032-0.377c0-0.268-0.054-0.628-0.16-1.081
				C761.195,418.648,761.158,418.547,761.12,418.445L761.12,418.445z M760.742,420.883c0.061,0.031,0.149,0.086,0.27,0.164
				s0.212,0.133,0.275,0.165c-0.063,0.172-0.149,0.326-0.256,0.466h-0.104l-0.57-0.29v-0.089l0.281-0.416H760.742L760.742,420.883
				L760.742,420.883z M763.312,417.868L763.312,417.868c-0.166,0.299-0.272,0.502-0.321,0.609c0.007,0.006,0.095,0.187,0.264,0.544
				c0.108,0.215,0.17,0.403,0.186,0.57c-0.102,0.063-0.229,0.109-0.385,0.135c-0.058,0.012-0.205,0.022-0.44,0.034
				c-0.155,0.026-0.268-0.038-0.338-0.194c-0.048-0.134-0.095-0.265-0.143-0.393c-0.13,0.203-0.181,0.502-0.153,0.897
				c0.048,0.159,0.078,0.243,0.092,0.251c0.015,0.008,0.02,0.023,0.02,0.045c0.129,0.096,0.281,0.144,0.457,0.144
				c0.112,0,0.279-0.025,0.498-0.074c0.22-0.051,0.377-0.077,0.474-0.085l0.192-0.063c0.123-0.075,0.185-0.165,0.185-0.272
				c0-0.7-0.14-1.36-0.418-1.98C763.452,417.945,763.397,417.89,763.312,417.868L763.312,417.868z M767.323,417.193L767.323,417.193
				l0.298-0.338h0.039c0.118,0.139,0.232,0.252,0.346,0.338h0.057c0.149-0.173,0.256-0.301,0.32-0.386v-0.097l-0.409-0.362
				c-0.012-0.005-0.024-0.008-0.041-0.008c-0.032,0-0.063,0.024-0.099,0.073c-0.036,0.048-0.056,0.075-0.063,0.081
				c-0.048,0.079-0.098,0.121-0.15,0.121c-0.048,0-0.121-0.047-0.218-0.139c-0.096-0.09-0.17-0.137-0.224-0.137l-0.313,0.406
				C767.043,416.963,767.195,417.112,767.323,417.193L767.323,417.193z M770.969,417.756L770.969,417.756
				c0.055,0.026,0.105,0.05,0.154,0.071c-0.069,0.14-0.104,0.216-0.104,0.231c0,0.028,0.019,0.04,0.056,0.04l0.358-0.296
				c0.021-0.017,0.11-0.048,0.265-0.096c0.105-0.039,0.159-0.094,0.159-0.169c0-0.031-0.009-0.069-0.024-0.112
				c-0.08,0.037-0.159,0.074-0.24,0.112c-0.111,0.048-0.205,0.071-0.279,0.071c-0.086,0-0.166-0.026-0.239-0.079
				c-0.012-0.021-0.017-0.042-0.017-0.063c0-0.037,0.034-0.091,0.104-0.159c0.048-0.05,0.115-0.076,0.201-0.08
				c0.086-0.006,0.165-0.009,0.241-0.009c0.037-0.075,0.058-0.13,0.064-0.168c-0.044-0.027-0.153-0.039-0.33-0.039
				c-0.123,0.027-0.227,0.101-0.311,0.225c-0.083,0.121-0.13,0.254-0.141,0.398C770.888,417.689,770.916,417.729,770.969,417.756
				L770.969,417.756z M775.491,420.875L775.491,420.875c-0.037,0-0.072,0.023-0.104,0.07c-0.032,0.049-0.055,0.077-0.064,0.082
				c-0.042,0.08-0.091,0.119-0.146,0.119c-0.048,0-0.121-0.043-0.22-0.132c-0.099-0.088-0.175-0.132-0.229-0.132l-0.313,0.392
				c0.182,0.214,0.337,0.363,0.466,0.448l0.288-0.335h0.048c0.118,0.132,0.23,0.245,0.338,0.335h0.063
				c0.144-0.171,0.249-0.299,0.313-0.385v-0.096l-0.401-0.359C775.516,420.878,775.503,420.875,775.491,420.875L775.491,420.875z
				 M779.838,417.802c0.644,0.556,0.965,1.143,0.965,1.757c0,0.172-0.027,0.343-0.081,0.514l-0.079,0.241
				c-0.038,0.097-0.089,0.165-0.154,0.209c-0.128-0.006-0.29-0.082-0.488-0.229c-0.197-0.148-0.359-0.232-0.482-0.254
				c-0.069,0.006-0.152,0.054-0.252,0.144c-0.099,0.092-0.184,0.143-0.254,0.153l-0.056,0.015h-2.957v-0.067
				c-0.006,0.007-0.011,0.011-0.019,0.017c-0.043,0.029-0.067,0.048-0.071,0.051h-3.606v-0.058
				c-0.004,0.003-0.006,0.005-0.009,0.007c-0.043,0.029-0.066,0.048-0.072,0.051h-3.848c-0.272-0.053-0.448-0.298-0.529-0.736
				l-0.04-0.209l-0.128,0.209c-0.055,0.178-0.14,0.302-0.257,0.377c-0.364,0-0.7-0.117-1.011-0.354
				c-0.042-0.428,0.078-0.767,0.36-1.019c0.097-0.078,0.22-0.154,0.369-0.225c0.135-0.058,0.265-0.114,0.394-0.168
				c0.032-0.063,0.024-0.137-0.024-0.218l0.337-0.496l0.064,0.144c0.043,0.392,0.134,0.966,0.272,1.726
				c0.08,0.122,0.255,0.199,0.527,0.232h1.283v-0.007h1.845c0.027-0.02,0.031-0.056,0.016-0.104
				c-0.021-0.063-0.031-0.098-0.031-0.104l-0.313-0.503l0.016-0.064l0.377-0.606c0.096,0.026,0.17,0.099,0.224,0.218
				c0.038,0.1,0.075,0.202,0.113,0.305c0.079,0.34,0.131,0.629,0.151,0.865h1.289v-0.007h1.846c0.026-0.02,0.032-0.055,0.015-0.104
				c-0.021-0.063-0.031-0.098-0.031-0.104l-0.313-0.503l0.016-0.063l0.378-0.606c0.096,0.025,0.172,0.097,0.225,0.216
				c0.037,0.102,0.074,0.203,0.112,0.306c0.08,0.339,0.13,0.628,0.15,0.864h1.302v-0.007h1.202c0.048-0.372,0.109-0.644,0.184-0.815
				l0.442-0.439c-0.107-0.118-0.161-0.205-0.161-0.266c0-0.025,0.006-0.052,0.017-0.079c0.107-0.233,0.215-0.38,0.329-0.44
				c0.08-0.009,0.163,0.018,0.249,0.08C779.708,417.697,779.774,417.748,779.838,417.802L779.838,417.802L779.838,417.802z
				 M767.58,419.246c0.064,0,0.125-0.012,0.186-0.031c0-0.107-0.052-0.346-0.153-0.714l-0.425,0.208l-0.176,0.111
				c-0.07,0.044-0.117,0.092-0.137,0.145c0.02,0.012,0.051,0.033,0.088,0.065c0.102,0.043,0.207,0.09,0.316,0.14
				C767.39,419.221,767.489,419.246,767.58,419.246L767.58,419.246L767.58,419.246z M779.419,419.463
				c0.107-0.118,0.161-0.257,0.161-0.417c0-0.165-0.044-0.265-0.129-0.296c-0.032-0.011-0.071-0.02-0.119-0.02
				c-0.145,0.02-0.254,0.1-0.329,0.243c-0.053,0.134-0.105,0.265-0.16,0.394L779.419,419.463L779.419,419.463L779.419,419.463z
				 M779.686,419.511l0.739,0.25c-0.043-0.504-0.224-0.862-0.54-1.077v0.146C779.885,419.017,779.818,419.243,779.686,419.511
				L779.686,419.511z"/>
		</g>
	</g>
	
		<rect x="530.817" y="211.081" fill="none" stroke="#FFFFFF" stroke-width="0.5" stroke-miterlimit="10" width="236.771" height="176.539"/>
	
		<image overflow="visible" width="318" height="67" id="Group_3_xA0_Image_1_" xlink:href="http://13.66.226.25/dusupwallpaper/uploads/svg_templates/resize/42E25FEA.png"  transform="matrix(0.4167 0 0 0.4167 530.8174 124.1665)">
	</image>
	
		<image overflow="visible" width="410" height="101" id="asd_xA0_Image_1_" xlink:href="http://13.66.226.25/dusupwallpaper/uploads/svg_templates/resize/42E25FED.png"  transform="matrix(0.4167 0 0 0.4167 549.2275 336.6035)">
	</image>
</g>
</svg>
