<?xml version="1.0" encoding="utf-8"?>
<!-- Generator: Adobe Illustrator 16.0.0, SVG Export Plug-In . SVG Version: 6.00 Build 0)  -->
<!DOCTYPE svg PUBLIC "-//W3C//DTD SVG 1.1//EN" "http://www.w3.org/Graphics/SVG/1.1/DTD/svg11.dtd">
<svg version="1.1" id="Layer_1" xmlns="http://www.w3.org/2000/svg" xmlns:xlink="http://www.w3.org/1999/xlink" x="0px" y="0px"
	 width="1920px" height="1080px" viewBox="0 0 1920 1080" enable-background="new 0 0 1920 1080" xml:space="preserve">
<image overflow="visible" width="1920" height="1080" id="Layer_2_xA0_Image_2_" xlink:href="88FC2D.png" >
</image>
<g>
	
		<image overflow="visible" width="1657" height="481" xlink:href="88FC2F.png"  transform="matrix(0.24 0 0 0.24 1499.3701 957.1553)">
	</image>
</g>
<line fill="none" stroke="#FFFFFF" stroke-width="0.5" stroke-miterlimit="10" x1="0" y1="949.57" x2="1920" y2="949.57"/>
<g>
	<defs>
		<rect id="SVGID_1_" x="1288.108" y="206.2" width="538.851" height="25.92"/>
	</defs>
	<clipPath id="SVGID_2_">
		<use xlink:href="#SVGID_1_"  overflow="visible"/>
	</clipPath>
	<g clip-path="url(#SVGID_2_)">
		<text transform="matrix(1 0 0 1 1288.1104 226.1196)" fill="#FFFFFF" font-family="'HelveticaLTStd-Light'" font-size="24">Unable to Sign-in to Skype for Business after your </text>
	</g>
</g>
<g>
	<defs>
		<rect id="SVGID_3_" x="1288.108" y="235" width="420.601" height="25.921"/>
	</defs>
	<clipPath id="SVGID_4_">
		<use xlink:href="#SVGID_3_"  overflow="visible"/>
	</clipPath>
	<g clip-path="url(#SVGID_4_)">
		<text transform="matrix(1 0 0 1 1288.1104 254.9194)"><tspan x="0" y="0" fill="#FFFFFF" font-family="'HelveticaLTStd-Light'" font-size="24">computer passwo</tspan><tspan x="192.047" y="0" fill="#FFFFFF" font-family="'HelveticaLTStd-Light'" font-size="24">r</tspan><tspan x="199.606" y="0" fill="#FFFFFF" font-family="'HelveticaLTStd-Light'" font-size="24">d changed </tspan><tspan x="323.662" y="0" fill="#FFFFFF" font-family="'HelveticaLTStd-Light'" font-size="24">r</tspan><tspan x="331.222" y="0" fill="#FFFFFF" font-family="'HelveticaLTStd-Light'" font-size="24">ecently?</tspan></text>
	</g>
</g>
<g>
	<defs>
		<rect id="SVGID_5_" x="1307.811" y="352.682" width="244.19" height="22.669"/>
	</defs>
	<clipPath id="SVGID_6_">
		<use xlink:href="#SVGID_5_"  overflow="visible"/>
	</clipPath>
	<g clip-path="url(#SVGID_6_)">
		<text transform="matrix(1 0 0 1 1307.8125 369.7358)" fill="#FFFFFF" font-family="'OpenSans-Semibold'" font-size="19.9009">HOW TO USE GUIDELINES</text>
	</g>
</g>
<path fill="#FFFFFF" d="M1312.946,626.049v1.352h5.438h0.135v8.303h-2.184v1.354h3.485v-11.006L1312.946,626.049z M1309.116,635.703
	v-8.305h2.187v-1.35h-3.488v11.006h6.876v-1.354h-5.436C1309.197,635.703,1309.15,635.703,1309.116,635.703"/>
<path fill="#FFFFFF" d="M1312.946,598.492v1.355h5.438h0.135v8.303h-2.184v1.352h3.485v-11.006L1312.946,598.492z M1309.116,608.148
	v-8.305h2.187v-1.354h-3.488v11.006h6.876v-1.352h-5.436C1309.197,608.148,1309.15,608.148,1309.116,608.148"/>
<path fill="#FFFFFF" d="M1312.946,543.381v1.352h5.571v8.305h-2.185v1.354h3.486v-11.006L1312.946,543.381z M1309.116,544.732h2.187
	v-1.352h-3.488v11.006h6.876v-1.354h-5.571L1309.116,544.732z"/>
<path fill="#FFFFFF" d="M1312.946,571.381v1.352h5.571v8.305h-2.185v1.354h3.486v-11.006L1312.946,571.381z M1309.116,572.732h2.187
	v-1.352h-3.488v11.006h6.876v-1.354h-5.571L1309.116,572.732z"/>
<g>
	<defs>
		<rect id="SVGID_7_" x="1307.811" y="406.404" width="486.88" height="19.441"/>
	</defs>
	<clipPath id="SVGID_8_">
		<use xlink:href="#SVGID_7_"  overflow="visible"/>
	</clipPath>
	<g clip-path="url(#SVGID_8_)">
		<text transform="matrix(1 0 0 1 1307.8125 421.3452)"><tspan x="0" y="0" fill="#FFFFFF" font-family="'HelveticaLTStd-Light'" font-size="18">If you a</tspan><tspan x="59.04" y="0" fill="#FFFFFF" font-family="'HelveticaLTStd-Light'" font-size="18">r</tspan><tspan x="64.728" y="0" fill="#FFFFFF" font-family="'HelveticaLTStd-Light'" font-size="18">e unable to sign-in to Skype for Business since after </tspan></text>
	</g>
</g>
<g>
	<defs>
		<rect id="SVGID_9_" x="1307.811" y="434.186" width="462.55" height="19.441"/>
	</defs>
	<clipPath id="SVGID_10_">
		<use xlink:href="#SVGID_9_"  overflow="visible"/>
	</clipPath>
	<g clip-path="url(#SVGID_10_)">
		<text transform="matrix(1 0 0 1 1307.8125 449.1265)"><tspan x="0" y="0" fill="#FFFFFF" font-family="'HelveticaLTStd-Light'" font-size="18">the </tspan><tspan x="30.024" y="0" fill="#FFFFFF" font-family="'HelveticaLTStd-Light'" font-size="18">r</tspan><tspan x="35.712" y="0" fill="#FFFFFF" font-family="'HelveticaLTStd-Light'" font-size="18">ecent computer passwo</tspan><tspan x="229.787" y="0" fill="#FFFFFF" font-family="'HelveticaLTStd-Light'" font-size="18">r</tspan><tspan x="235.475" y="0" fill="#FFFFFF" font-family="'HelveticaLTStd-Light'" font-size="18">d change, please follow the </tspan></text>
	</g>
</g>
<g>
	<defs>
		<rect id="SVGID_11_" x="1307.811" y="461.969" width="141.39" height="19.439"/>
	</defs>
	<clipPath id="SVGID_12_">
		<use xlink:href="#SVGID_11_"  overflow="visible"/>
	</clipPath>
	<g clip-path="url(#SVGID_12_)">
		<text transform="matrix(1 0 0 1 1307.8125 476.9087)"><tspan x="0" y="0" fill="#FFFFFF" font-family="'HelveticaLTStd-Light'" font-size="18">below p</tspan><tspan x="64.007" y="0" fill="#FFFFFF" font-family="'HelveticaLTStd-Light'" font-size="18">r</tspan><tspan x="69.695" y="0" fill="#FFFFFF" font-family="'HelveticaLTStd-Light'" font-size="18">ocedu</tspan><tspan x="120.725" y="0" fill="#FFFFFF" font-family="'HelveticaLTStd-Light'" font-size="18">r</tspan><tspan x="126.413" y="0" fill="#FFFFFF" font-family="'HelveticaLTStd-Light'" font-size="18">e.</tspan></text>
	</g>
</g>
<g>
	<defs>
		<rect id="SVGID_13_" x="1332.671" y="540.418" width="142.25" height="17.281"/>
	</defs>
	<clipPath id="SVGID_14_">
		<use xlink:href="#SVGID_13_"  overflow="visible"/>
	</clipPath>
	<g clip-path="url(#SVGID_14_)">
		<text transform="matrix(1 0 0 1 1332.6709 553.6992)" fill="#FFFFFF" font-family="'HelveticaLTStd-Light'" font-size="16">Click cancel Sign-in</text>
	</g>
</g>
<g>
	<defs>
		<rect id="SVGID_15_" x="1332.671" y="568.201" width="202.699" height="17.279"/>
	</defs>
	<clipPath id="SVGID_16_">
		<use xlink:href="#SVGID_15_"  overflow="visible"/>
	</clipPath>
	<g clip-path="url(#SVGID_16_)">
		<text transform="matrix(1 0 0 1 1332.6709 581.4805)" fill="#FFFFFF" font-family="'HelveticaLTStd-Light'" font-size="16">Click Delete My Signing-Info</text>
	</g>
</g>
<g>
	<defs>
		<rect id="SVGID_17_" x="1332.671" y="595.982" width="475.39" height="17.281"/>
	</defs>
	<clipPath id="SVGID_18_">
		<use xlink:href="#SVGID_17_"  overflow="visible"/>
	</clipPath>
	<g clip-path="url(#SVGID_18_)">
		<text transform="matrix(1 0 0 1 1332.6709 609.2637)"><tspan x="0" y="0" fill="#FFFFFF" font-family="'HelveticaLTStd-Light'" font-size="16">P</tspan><tspan x="9.775" y="0" fill="#FFFFFF" font-family="'HelveticaLTStd-Light'" font-size="16">r</tspan><tspan x="14.832" y="0" fill="#FFFFFF" font-family="'HelveticaLTStd-Light'" font-size="16">ovide your new passwo</tspan><tspan x="182.879" y="0" fill="#FFFFFF" font-family="'HelveticaLTStd-Light'" font-size="16">r</tspan><tspan x="187.919" y="0" fill="#FFFFFF" font-family="'HelveticaLTStd-Light'" font-size="16">d along with your email ID as use</tspan><tspan x="425.324" y="0" fill="#FFFFFF" font-family="'HelveticaLTStd-Light'" font-size="16">r</tspan><tspan x="430.94" y="0" fill="#FFFFFF" font-family="'HelveticaLTStd-Light'" font-size="16">name.</tspan></text>
	</g>
</g>
<g>
	<defs>
		<rect id="SVGID_19_" x="1332.671" y="623.764" width="366.96" height="17.281"/>
	</defs>
	<clipPath id="SVGID_20_">
		<use xlink:href="#SVGID_19_"  overflow="visible"/>
	</clipPath>
	<g clip-path="url(#SVGID_20_)">
		<text transform="matrix(1 0 0 1 1332.6709 637.0449)"><tspan x="0" y="0" fill="#FFFFFF" font-family="'HelveticaLTStd-Light'" font-size="16">For mo</tspan><tspan x="49.792" y="0" fill="#FFFFFF" font-family="'HelveticaLTStd-Light'" font-size="16">r</tspan><tspan x="54.848" y="0" fill="#FFFFFF" font-family="'HelveticaLTStd-Light'" font-size="16">e details, check out DUSUP Intranet/IT/help</tspan></text>
	</g>
</g>
<line fill="none" stroke="#FFFFFF" stroke-width="0.5" stroke-miterlimit="10" x1="1307.813" y1="381.344" x2="1554.8" y2="381.344"/>
<rect x="1287.813" y="325.964" fill="none" stroke="#FFFFFF" stroke-width="0.5" stroke-miterlimit="10" width="568.251" height="355.422"/>
<g>
	
		<image overflow="visible" width="556" height="556" xlink:href="88FC2A.png"  transform="matrix(0.24 0 0 0.24 1252.1787 40.7046)">
	</image>
</g>
<g>
	
		<image overflow="visible" width="1476" height="423" xlink:href="88FC2B.png"  transform="matrix(0.24 0 0 0.24 1343.8691 53.8765)">
	</image>
</g>
<text transform="matrix(1 0 0 1 70.5371 1018.6777)" fill="#FFFFFF" font-family="'OpenSans-Semibold'" font-size="13.6203">Copyright@2017 DUBAI SUPPLY AUTHORITY | All rights reserved</text>
</svg>
