<?xml version="1.0" encoding="utf-8"?>
<!-- Generator: Adobe Illustrator 16.0.0, SVG Export Plug-In . SVG Version: 6.00 Build 0)  -->
<!DOCTYPE svg PUBLIC "-//W3C//DTD SVG 1.1//EN" "http://www.w3.org/Graphics/SVG/1.1/DTD/svg11.dtd">
<svg version="1.1" id="Layer_1" xmlns="http://www.w3.org/2000/svg" xmlns:xlink="http://www.w3.org/1999/xlink" x="0px" y="0px"
	 width="1920px" height="1080px" viewBox="0 0 1920 1080" enable-background="new 0 0 1920 1080" xml:space="preserve">
<g>
	<defs>
		<rect id="SVGID_1_" width="1920" height="1080"/>
	</defs>
	<clipPath id="SVGID_2_">
		<use xlink:href="#SVGID_1_"  overflow="visible"/>
	</clipPath>
	<g clip-path="url(#SVGID_2_)">
		<defs>
			<rect id="SVGID_3_" width="1920" height="1080"/>
		</defs>
		<clipPath id="SVGID_4_">
			<use xlink:href="#SVGID_3_"  overflow="visible"/>
		</clipPath>
		<image overflow="visible" clip-path="url(#SVGID_4_)" width="1920" height="1080" xlink:href="46896511.png" >
		</image>
	</g>
	<g clip-path="url(#SVGID_2_)">
		<defs>
			<rect id="SVGID_5_" width="1920" height="1080"/>
		</defs>
		<clipPath id="SVGID_6_">
			<use xlink:href="#SVGID_5_"  overflow="visible"/>
		</clipPath>
		<g clip-path="url(#SVGID_6_)">
			<defs>
				<rect id="SVGID_7_" x="1293.96" y="531.282" width="244.19" height="22.67"/>
			</defs>
			<clipPath id="SVGID_8_">
				<use xlink:href="#SVGID_7_"  overflow="visible"/>
			</clipPath>
			<g clip-path="url(#SVGID_8_)">
				<text transform="matrix(1 0 0 1 1293.9619 548.3359)" fill="#FFFFFF" font-family="'OpenSans-Semibold'" font-size="19.9009">HOW TO USE GUIDELINES</text>
			</g>
		</g>
		<path clip-path="url(#SVGID_6_)" fill="#FFFFFF" d="M1299.096,774.648V776h5.438h0.135v8.304h-2.184v1.354h3.485V774.65
			L1299.096,774.648z M1295.266,784.304v-8.305h2.187v-1.351h-3.488v11.006h6.876v-1.354h-5.436
			C1295.347,784.304,1295.3,784.304,1295.266,784.304"/>
		<path clip-path="url(#SVGID_6_)" fill="#FFFFFF" d="M1299.096,747.093v1.354h5.438h0.135v8.304h-2.184v1.352h3.485v-11.007
			L1299.096,747.093z M1295.266,756.748v-8.305h2.187v-1.354h-3.488v11.006h6.876v-1.351h-5.436
			C1295.347,756.748,1295.3,756.748,1295.266,756.748"/>
		<path clip-path="url(#SVGID_6_)" fill="#FFFFFF" d="M1299.096,691.981v1.352h5.571v8.304h-2.185v1.354h3.486v-11.006
			L1299.096,691.981z M1295.266,693.332h2.187v-1.352h-3.488v11.007h6.876v-1.354h-5.571L1295.266,693.332z"/>
		<path clip-path="url(#SVGID_6_)" fill="#FFFFFF" d="M1299.096,719.981v1.352h5.571v8.304h-2.185v1.354h3.486v-11.006
			L1299.096,719.981z M1295.266,721.332h2.187v-1.352h-3.488v11.007h6.876v-1.354h-5.571L1295.266,721.332z"/>
		<g clip-path="url(#SVGID_6_)">
			<defs>
				<rect id="SVGID_9_" x="1273.96" y="404.961" width="538.851" height="25.92"/>
			</defs>
			<clipPath id="SVGID_10_">
				<use xlink:href="#SVGID_9_"  overflow="visible"/>
			</clipPath>
			<g clip-path="url(#SVGID_10_)">
				<text transform="matrix(1 0 0 1 1273.9619 424.8809)" fill="#FFFFFF" font-family="'HelveticaLTStd-Light'" font-size="24">Unable to Sign-in to Skype for Business after your </text>
			</g>
		</g>
		<g clip-path="url(#SVGID_6_)">
			<defs>
				<rect id="SVGID_11_" x="1273.96" y="433.761" width="420.601" height="25.92"/>
			</defs>
			<clipPath id="SVGID_12_">
				<use xlink:href="#SVGID_11_"  overflow="visible"/>
			</clipPath>
			<g clip-path="url(#SVGID_12_)">
				<text transform="matrix(1 0 0 1 1273.9619 453.6807)"><tspan x="0" y="0" fill="#FFFFFF" font-family="'HelveticaLTStd-Light'" font-size="24">computer passwo</tspan><tspan x="192.047" y="0" fill="#FFFFFF" font-family="'HelveticaLTStd-Light'" font-size="24">r</tspan><tspan x="199.606" y="0" fill="#FFFFFF" font-family="'HelveticaLTStd-Light'" font-size="24">d changed </tspan><tspan x="323.662" y="0" fill="#FFFFFF" font-family="'HelveticaLTStd-Light'" font-size="24">r</tspan><tspan x="331.222" y="0" fill="#FFFFFF" font-family="'HelveticaLTStd-Light'" font-size="24">ecently?</tspan></text>
			</g>
		</g>
		<g clip-path="url(#SVGID_6_)">
			<defs>
				<rect id="SVGID_13_" x="1293.96" y="585.005" width="486.88" height="19.44"/>
			</defs>
			<clipPath id="SVGID_14_">
				<use xlink:href="#SVGID_13_"  overflow="visible"/>
			</clipPath>
			<g clip-path="url(#SVGID_14_)">
				<text transform="matrix(1 0 0 1 1293.9619 599.9453)"><tspan x="0" y="0" fill="#FFFFFF" font-family="'HelveticaLTStd-Light'" font-size="18">If you a</tspan><tspan x="59.04" y="0" fill="#FFFFFF" font-family="'HelveticaLTStd-Light'" font-size="18">r</tspan><tspan x="64.728" y="0" fill="#FFFFFF" font-family="'HelveticaLTStd-Light'" font-size="18">e unable to sign-in to Skype for Business since after </tspan></text>
			</g>
		</g>
		<g clip-path="url(#SVGID_6_)">
			<defs>
				<rect id="SVGID_15_" x="1293.96" y="612.786" width="462.55" height="19.44"/>
			</defs>
			<clipPath id="SVGID_16_">
				<use xlink:href="#SVGID_15_"  overflow="visible"/>
			</clipPath>
			<g clip-path="url(#SVGID_16_)">
				<text transform="matrix(1 0 0 1 1293.9619 627.7266)"><tspan x="0" y="0" fill="#FFFFFF" font-family="'HelveticaLTStd-Light'" font-size="18">the </tspan><tspan x="30.024" y="0" fill="#FFFFFF" font-family="'HelveticaLTStd-Light'" font-size="18">r</tspan><tspan x="35.712" y="0" fill="#FFFFFF" font-family="'HelveticaLTStd-Light'" font-size="18">ecent computer passwo</tspan><tspan x="229.787" y="0" fill="#FFFFFF" font-family="'HelveticaLTStd-Light'" font-size="18">r</tspan><tspan x="235.475" y="0" fill="#FFFFFF" font-family="'HelveticaLTStd-Light'" font-size="18">d change, please follow the </tspan></text>
			</g>
		</g>
		<g clip-path="url(#SVGID_6_)">
			<defs>
				<rect id="SVGID_17_" x="1293.96" y="640.568" width="141.39" height="19.44"/>
			</defs>
			<clipPath id="SVGID_18_">
				<use xlink:href="#SVGID_17_"  overflow="visible"/>
			</clipPath>
			<g clip-path="url(#SVGID_18_)">
				<text transform="matrix(1 0 0 1 1293.9619 655.5088)"><tspan x="0" y="0" fill="#FFFFFF" font-family="'HelveticaLTStd-Light'" font-size="18">below p</tspan><tspan x="64.007" y="0" fill="#FFFFFF" font-family="'HelveticaLTStd-Light'" font-size="18">r</tspan><tspan x="69.695" y="0" fill="#FFFFFF" font-family="'HelveticaLTStd-Light'" font-size="18">ocedu</tspan><tspan x="120.725" y="0" fill="#FFFFFF" font-family="'HelveticaLTStd-Light'" font-size="18">r</tspan><tspan x="126.413" y="0" fill="#FFFFFF" font-family="'HelveticaLTStd-Light'" font-size="18">e.</tspan></text>
			</g>
		</g>
		<g clip-path="url(#SVGID_6_)">
			<defs>
				<rect id="SVGID_19_" x="1318.82" y="689.019" width="142.25" height="17.28"/>
			</defs>
			<clipPath id="SVGID_20_">
				<use xlink:href="#SVGID_19_"  overflow="visible"/>
			</clipPath>
			<g clip-path="url(#SVGID_20_)">
				<text transform="matrix(1 0 0 1 1318.8203 702.2988)" fill="#FFFFFF" font-family="'HelveticaLTStd-Light'" font-size="16">Click cancel Sign-in</text>
			</g>
		</g>
		<g clip-path="url(#SVGID_6_)">
			<defs>
				<rect id="SVGID_21_" x="1318.82" y="716.801" width="202.699" height="17.28"/>
			</defs>
			<clipPath id="SVGID_22_">
				<use xlink:href="#SVGID_21_"  overflow="visible"/>
			</clipPath>
			<g clip-path="url(#SVGID_22_)">
				<text transform="matrix(1 0 0 1 1318.8203 730.0811)" fill="#FFFFFF" font-family="'HelveticaLTStd-Light'" font-size="16">Click Delete My Signing-Info</text>
			</g>
		</g>
		<g clip-path="url(#SVGID_6_)">
			<defs>
				<rect id="SVGID_23_" x="1318.82" y="744.583" width="475.39" height="17.28"/>
			</defs>
			<clipPath id="SVGID_24_">
				<use xlink:href="#SVGID_23_"  overflow="visible"/>
			</clipPath>
			<g clip-path="url(#SVGID_24_)">
				<text transform="matrix(1 0 0 1 1318.8203 757.8633)"><tspan x="0" y="0" fill="#FFFFFF" font-family="'HelveticaLTStd-Light'" font-size="16">P</tspan><tspan x="9.775" y="0" fill="#FFFFFF" font-family="'HelveticaLTStd-Light'" font-size="16">r</tspan><tspan x="14.832" y="0" fill="#FFFFFF" font-family="'HelveticaLTStd-Light'" font-size="16">ovide your new passwo</tspan><tspan x="182.879" y="0" fill="#FFFFFF" font-family="'HelveticaLTStd-Light'" font-size="16">r</tspan><tspan x="187.919" y="0" fill="#FFFFFF" font-family="'HelveticaLTStd-Light'" font-size="16">d along with your email ID as use</tspan><tspan x="425.324" y="0" fill="#FFFFFF" font-family="'HelveticaLTStd-Light'" font-size="16">r</tspan><tspan x="430.94" y="0" fill="#FFFFFF" font-family="'HelveticaLTStd-Light'" font-size="16">name.</tspan></text>
			</g>
		</g>
		<g clip-path="url(#SVGID_6_)">
			<defs>
				<rect id="SVGID_25_" x="1318.82" y="772.364" width="366.96" height="17.28"/>
			</defs>
			<clipPath id="SVGID_26_">
				<use xlink:href="#SVGID_25_"  overflow="visible"/>
			</clipPath>
			<g clip-path="url(#SVGID_26_)">
				<text transform="matrix(1 0 0 1 1318.8203 785.6445)"><tspan x="0" y="0" fill="#FFFFFF" font-family="'HelveticaLTStd-Light'" font-size="16">For mo</tspan><tspan x="49.792" y="0" fill="#FFFFFF" font-family="'HelveticaLTStd-Light'" font-size="16">r</tspan><tspan x="54.848" y="0" fill="#FFFFFF" font-family="'HelveticaLTStd-Light'" font-size="16">e details, check out DUDUP Intranet/IT/help</tspan></text>
			</g>
		</g>
		
			<line clip-path="url(#SVGID_6_)" fill="none" stroke="#FFFFFF" stroke-width="0.5" stroke-miterlimit="10" x1="1293.962" y1="559.944" x2="1540.949" y2="559.944"/>
		
			<rect x="1273.962" y="506.595" clip-path="url(#SVGID_6_)" fill="none" stroke="#FFFFFF" stroke-width="0.5" stroke-miterlimit="10" width="568.251" height="319.484"/>
	</g>
</g>
<g>
	<defs>
		<rect id="SVGID_27_" x="1581.28" y="972.26" width="317.47" height="84.827"/>
	</defs>
	<clipPath id="SVGID_28_">
		<use xlink:href="#SVGID_27_"  overflow="visible"/>
	</clipPath>
	<g clip-path="url(#SVGID_28_)">
		<defs>
			<rect id="SVGID_29_" x="1581.282" y="972.261" width="317.47" height="84.827"/>
		</defs>
		<clipPath id="SVGID_30_">
			<use xlink:href="#SVGID_29_"  overflow="visible"/>
		</clipPath>
		<g transform="matrix(1 0 0 1 1.220703e-004 0)" clip-path="url(#SVGID_30_)">
			
				<image overflow="visible" width="1003" height="268" xlink:href="46896513.png"  transform="matrix(0.3165 0 0 0.3165 1581.2822 972.2607)">
			</image>
		</g>
	</g>
</g>
<g>
	<defs>
		<rect id="SVGID_31_" x="1273.54" y="297.638" width="287.83" height="67.725"/>
	</defs>
	<clipPath id="SVGID_32_">
		<use xlink:href="#SVGID_31_"  overflow="visible"/>
	</clipPath>
	<g clip-path="url(#SVGID_32_)">
		<defs>
			<rect id="SVGID_33_" x="1273.541" y="297.638" width="287.83" height="67.725"/>
		</defs>
		<clipPath id="SVGID_34_">
			<use xlink:href="#SVGID_33_"  overflow="visible"/>
		</clipPath>
		<g transform="matrix(1 0 0 1 1.220703e-004 0)" clip-path="url(#SVGID_34_)">
			
				<image overflow="visible" width="289" height="68" xlink:href="46896516.png"  transform="matrix(0.996 0 0 0.996 1273.541 297.6377)">
			</image>
		</g>
	</g>
</g>
</svg>
