<?xml version="1.0" encoding="utf-8"?>
<!-- Generator: Adobe Illustrator 17.0.0, SVG Export Plug-In . SVG Version: 6.00 Build 0)  -->
<!DOCTYPE svg PUBLIC "-//W3C//DTD SVG 1.1//EN" "http://www.w3.org/Graphics/SVG/1.1/DTD/svg11.dtd">
<svg version="1.1" id="Layer_1" xmlns="http://www.w3.org/2000/svg" xmlns:xlink="http://www.w3.org/1999/xlink" x="0px" y="0px"
	 width="1920px" height="1080px" viewBox="0 0 1920 1080" enable-background="new 0 0 1920 1080" xml:space="preserve">
<g id="Example_xA0_Image_1_">
	
		<image overflow="visible" enable-background="new    " width="1921" height="1081" id="Layer_172_xA0_Image" xlink:href="F4BE9079.jpg"  transform="matrix(0.9994 0 0 0.9991 0.0467 0)">
	</image>
	<text transform="matrix(1.0004 0 0 1 1293.9785 548.334)" fill="#FFFFFF" font-family="'OpenSans-Semibold'" font-size="19.8948">HOW TO USE GUIDELINES</text>
	<g>
		<g>
			<path fill="#FFFFFF" d="M1299.112,774.576v1.352c3.546,0,4.941,0,5.438,0c0.054,0,0.101,0,0.135,0c0,1.079,0,7.223,0,8.301
				c-0.255,0-0.146,0-2.184,0v1.352h3.487v-11.003L1299.112,774.576L1299.112,774.576z M1295.282,784.229c0-1.08,0-7.223,0-8.302
				c0.256,0,0.146,0,2.185,0v-1.351h-3.488v11.003h6.876v-1.352c-3.546,0-4.942,0-5.436,0
				C1295.363,784.229,1295.316,784.229,1295.282,784.229z"/>
		</g>
	</g>
	<g>
		<g>
			<path fill="#FFFFFF" d="M1299.112,747.029v1.353c3.546,0,4.941,0,5.438,0c0.054,0,0.101,0,0.135,0c0,1.079,0,7.223,0,8.301
				c-0.255,0-0.146,0-2.184,0v1.351h3.487v-11.003L1299.112,747.029L1299.112,747.029z M1295.282,756.681c0-1.08,0-7.223,0-8.302
				c0.256,0,0.146,0,2.185,0v-1.352h-3.488v11.003h6.876v-1.351c-3.546,0-4.942,0-5.436,0
				C1295.363,756.681,1295.316,756.681,1295.282,756.681z"/>
		</g>
	</g>
	<g>
		<g>
			<g>
				<path fill="#FFFFFF" d="M1299.112,691.934v1.352h5.571v8.301c-0.255,0-0.146,0-2.184,0v1.352h3.487v-11.003L1299.112,691.934
					L1299.112,691.934z M1295.282,693.285c0.256,0,0.146,0,2.185,0v-1.352h-3.488v11.004h6.876v-1.352h-5.571L1295.282,693.285
					L1295.282,693.285z"/>
			</g>
		</g>
	</g>
	<g>
		<g>
			<g>
				<path fill="#FFFFFF" d="M1299.112,719.926v1.352h5.571v8.301c-0.255,0-0.146,0-2.184,0v1.352h3.487v-11.003L1299.112,719.926
					L1299.112,719.926z M1295.282,721.276c0.256,0,0.146,0,2.185,0v-1.352h-3.488v11.004h6.876v-1.352h-5.571L1295.282,721.276
					L1295.282,721.276z"/>
			</g>
		</g>
	</g>
	<rect x="1273.977" y="407.642" fill="none" width="534" height="85.47"/>
	
		<text transform="matrix(1.0004 0 0 1 1273.9775 424.9155)" fill="#FFFFFF" font-family="'HelveticaLTStd-Light'" font-size="23.9926">Unable to Sign-in to Skype for Business after your </text>
	
		<text transform="matrix(1.0004 0 0 1 1273.9775 453.7065)" fill="#FFFFFF" font-family="'HelveticaLTStd-Light'" font-size="23.9926">computer password changed recently?</text>
	<rect x="1293.978" y="586.971" fill="none" width="494.114" height="73.492"/>
	
		<text transform="matrix(1.0004 0 0 1 1293.9785 599.9268)" fill="#FFFFFF" font-family="'HelveticaLTStd-Light'" font-size="17.9945">If you are unable to sign-in to Skype for Business since after </text>
	
		<text transform="matrix(1.0004 0 0 1 1293.9785 627.7002)" fill="#FFFFFF" font-family="'HelveticaLTStd-Light'" font-size="17.9945">the recent computer password change, please follow the </text>
	
		<text transform="matrix(1.0004 0 0 1 1293.9785 655.4727)" fill="#FFFFFF" font-family="'HelveticaLTStd-Light'" font-size="17.9945">below procedure.</text>
	<rect x="1318.837" y="690.733" fill="none" width="509.753" height="156.75"/>
	
		<text transform="matrix(1.0004 0 0 1 1318.8379 702.249)" fill="#FFFFFF" font-family="'HelveticaLTStd-Light'" font-size="15.9951">Click cancel Sign-in</text>
	
		<text transform="matrix(1.0004 0 0 1 1318.8379 730.0225)" fill="#FFFFFF" font-family="'HelveticaLTStd-Light'" font-size="15.9951">Click Delete My Signing-Info</text>
	
		<text transform="matrix(1.0004 0 0 1 1318.8379 757.7969)" fill="#FFFFFF" font-family="'HelveticaLTStd-Light'" font-size="15.9951">Provide your new password along with your email ID as username.</text>
	
		<text transform="matrix(1.0004 0 0 1 1318.8379 785.5693)" fill="#FFFFFF" font-family="'HelveticaLTStd-Light'" font-size="15.9951">For more details, check out DUDUP Intranet/IT/help</text>
	
		<line fill="none" stroke="#FFFFFF" stroke-width="0.5" stroke-miterlimit="10" x1="1293.978" y1="559.938" x2="1593.47" y2="559.938"/>
	
		<image overflow="visible" enable-background="new    " width="289" height="68" id="Group_5_xA0_Image" xlink:href="F4BE907B.png"  transform="matrix(0.996 0 0 0.9956 1274.062 297.7121)">
	</image>
	
		<line fill="none" stroke="#FFFFFF" stroke-width="0.5" stroke-miterlimit="10" x1="631.335" y1="983.478" x2="1920.047" y2="983.478"/>
	<g>
		<path fill="#FFFFFF" stroke="#000100" stroke-width="0.216" stroke-miterlimit="2.6131" d="M1626.951,999.837v31.985h70.713
			v-3.925c-25.386,0-64.261,0-66.788,0c0-3.138,0-20.997,0-24.134c0.75,0,4.749,0,10.657,0v-3.928h-14.582V999.837z"/>
		<path fill="#FFFFFF" stroke="#000100" stroke-width="0.216" stroke-miterlimit="2.6131" d="M1652.094,999.837v3.928
			c25.381,0,64.658,0,67.191,0c0,3.137,0,20.996,0,24.134c-0.768,0-4.921,0-11.055,0v3.925h14.983v-31.985h-71.12V999.837z"/>
		<path fill="#FFFFFF" d="M1648.581,999.772h-3.886v8.235h-9.658v3.688h0.029v11.957h13.26v-0.007h0.256L1648.581,999.772
			L1648.581,999.772z M1638.954,1011.696L1638.954,1011.696h5.741v8.276h-5.741V1011.696z"/>
		<path fill="#FFFFFF" d="M1701.048,1031.964h3.893v-8.242h9.658v-3.681h-0.033v-11.96h-13.262v0.003h-0.257V1031.964
			L1701.048,1031.964z M1710.682,1020.041L1710.682,1020.041h-5.742v-8.28h5.742V1020.041z"/>
		<polygon fill="#FFFFFF" points="1665.178,1007.971 1661.28,1007.971 1661.28,1020.128 1656.029,1020.128 1656.029,1007.971 
			1652.145,1007.971 1652.145,1023.613 1652.32,1023.613 1652.32,1023.616 1664.971,1023.616 1664.971,1023.613 1665.178,1023.613 
					"/>
		<polygon fill="#FFFFFF" points="1697.487,1007.971 1693.602,1007.971 1693.602,1020.128 1688.352,1020.128 1688.352,1007.971 
			1684.46,1007.971 1684.46,1023.613 1684.635,1023.613 1684.635,1023.616 1697.289,1023.616 1697.289,1023.613 1697.487,1023.613 
					"/>
		<polygon fill="#FFFFFF" points="1672.832,1012.117 1680.902,1012.117 1680.902,1007.971 1668.729,1007.971 1668.729,1017.164 
			1676.806,1017.164 1676.806,1020.087 1668.729,1020.087 1668.729,1023.494 1680.902,1023.494 1680.902,1013.752 
			1672.832,1013.752 		"/>
		<g>
			<path fill="#FFFFFF" d="M1732.208,1020.331h0.96h2.991c1.267,0,2.229,0.344,2.888,1.021c0.661,0.684,0.991,1.677,0.991,2.99
				c0,1.441-0.341,2.54-1.027,3.294c-0.687,0.75-1.688,1.126-3.01,1.126h-2.833h-0.96L1732.208,1020.331L1732.208,1020.331z
				 M1734.132,1027.312L1734.132,1027.312h1.631c0.782,0,1.37-0.24,1.762-0.727c0.392-0.482,0.589-1.21,0.589-2.177
				c0-0.877-0.183-1.532-0.547-1.971c-0.366-0.439-0.913-0.656-1.648-0.656h-1.786L1734.132,1027.312L1734.132,1027.312z"/>
			<path fill="#FFFFFF" d="M1743.159,1026.43c0,0.382,0.088,0.664,0.269,0.847c0.18,0.183,0.458,0.276,0.83,0.276
				c0.471,0,0.83-0.132,1.082-0.391c0.252-0.259,0.378-0.634,0.378-1.124v-3.513h0.896h0.905v6.235h-0.854h-0.859v-0.937
				c-0.063,0.115-0.138,0.223-0.226,0.322c-0.445,0.517-1.087,0.774-1.927,0.774c-0.724,0-1.281-0.194-1.688-0.582
				c-0.403-0.391-0.604-0.926-0.604-1.615v-4.198h0.896h0.903v3.906H1743.159z"/>
			<path fill="#FFFFFF" d="M1749.153,1020.338h0.897h0.9v3.005l0.039-0.048c0.484-0.621,1.124-0.931,1.921-0.931
				c0.865,0,1.562,0.289,2.089,0.874c0.526,0.582,0.791,1.352,0.791,2.307c0,1.014-0.265,1.826-0.791,2.446
				c-0.527,0.62-1.224,0.93-2.089,0.93c-0.792,0-1.431-0.292-1.921-0.868l-0.077-0.096v0.804h-1.76v-8.424H1749.153z
				 M1752.397,1027.563L1752.397,1027.563c0.485,0,0.865-0.163,1.136-0.491c0.274-0.332,0.408-0.791,0.408-1.379
				c0-0.6-0.134-1.065-0.408-1.402c-0.271-0.34-0.647-0.508-1.129-0.508c-0.48,0-0.858,0.177-1.13,0.521
				c-0.272,0.347-0.409,0.83-0.409,1.446c0,0.568,0.137,1.014,0.409,1.333C1751.543,1027.407,1751.918,1027.563,1752.397,1027.563z"
				/>
			<path fill="#FFFFFF" d="M1758.691,1028.922c-0.631,0-1.139-0.167-1.525-0.498c-0.385-0.332-0.576-0.767-0.576-1.305
				c0-0.566,0.174-1.023,0.519-1.367c0.35-0.342,0.854-0.557,1.519-0.642l1.187-0.151c0.31-0.036,0.565-0.103,0.771-0.195
				c0.086-0.037,0.157-0.103,0.205-0.206c0.046-0.099,0.063-0.198,0.052-0.301c-0.024-0.173-0.124-0.31-0.293-0.411
				c-0.206-0.117-0.498-0.173-0.883-0.173c-0.341,0-0.612,0.073-0.803,0.227c-0.194,0.153-0.298,0.365-0.309,0.643h-1.727
				c0.038-0.729,0.31-1.278,0.817-1.637c0.506-0.362,1.247-0.541,2.229-0.541c0.849,0,1.52,0.161,2.013,0.487
				c0.489,0.326,0.735,0.774,0.735,1.339v3.485c0,0.279,0.024,0.478,0.073,0.586c0.053,0.116,0.152,0.206,0.304,0.266v0.009v0.226
				h-0.974h-0.974v-0.007c-0.08-0.252-0.133-0.5-0.158-0.739l-0.006-0.012C1760.32,1028.614,1759.591,1028.922,1758.691,1028.922
				L1758.691,1028.922z M1760.853,1026.455L1760.853,1026.455v-0.715c-0.209,0.105-0.485,0.19-0.825,0.257l-0.666,0.114
				c-0.315,0.056-0.552,0.154-0.717,0.297c-0.162,0.141-0.244,0.322-0.244,0.537c0,0.249,0.074,0.444,0.219,0.586
				c0.146,0.143,0.353,0.211,0.616,0.211c0.577,0,1.037-0.185,1.379-0.555c0.068-0.072,0.124-0.179,0.17-0.319
				C1760.832,1026.724,1760.853,1026.59,1760.853,1026.455z"/>
			<path fill="#FFFFFF" d="M1764.255,1020.274h1.831v1.526h-1.831V1020.274L1764.255,1020.274z M1764.273,1022.527
				L1764.273,1022.527h0.897h0.902v6.235h-0.896h-0.903V1022.527z"/>
			<path fill="#FFFFFF" d="M1776.495,1022.869c-0.034-0.404-0.226-0.725-0.576-0.96c-0.354-0.235-0.813-0.352-1.376-0.352
				c-0.49,0-0.873,0.099-1.151,0.295c-0.274,0.198-0.411,0.471-0.411,0.824c0,0.25,0.144,0.449,0.43,0.585
				c0.286,0.137,0.892,0.301,1.818,0.487c1.342,0.277,2.241,0.595,2.693,0.95c0.453,0.358,0.679,0.93,0.679,1.718
				c0,0.791-0.344,1.42-1.024,1.878c-0.682,0.467-1.604,0.7-2.77,0.7c-1.166,0-2.078-0.245-2.736-0.738
				c-0.655-0.496-1.009-1.199-1.054-2.104h1.856c0.023,0.449,0.201,0.793,0.534,1.035c0.335,0.239,0.803,0.36,1.402,0.36
				c0.614,0,1.095-0.092,1.442-0.273c0.343-0.182,0.517-0.431,0.517-0.755c0-0.315-0.123-0.551-0.368-0.701
				c-0.244-0.147-0.765-0.303-1.562-0.464c-1.462-0.297-2.443-0.62-2.937-0.969c-0.49-0.346-0.733-0.885-0.733-1.609
				c0-0.82,0.323-1.468,0.972-1.947c0.649-0.479,1.524-0.721,2.628-0.721c1.034,0,1.877,0.251,2.526,0.749
				c0.647,0.495,1.008,1.164,1.08,2.013L1776.495,1022.869L1776.495,1022.869z"/>
			<path fill="#FFFFFF" d="M1781.732,1026.43c0,0.382,0.09,0.664,0.271,0.847c0.179,0.183,0.457,0.276,0.83,0.276
				c0.469,0,0.829-0.132,1.08-0.391c0.252-0.259,0.38-0.634,0.38-1.124v-3.513h0.894h0.904v6.235h-0.854h-0.858v-0.937
				c-0.063,0.115-0.138,0.223-0.226,0.322c-0.443,0.517-1.086,0.774-1.926,0.774c-0.723,0-1.281-0.194-1.688-0.582
				c-0.402-0.391-0.605-0.926-0.605-1.615v-4.198h0.897h0.901V1026.43z"/>
			<path fill="#FFFFFF" d="M1787.74,1022.527h0.853h0.86v0.926l0.116-0.159c0.486-0.618,1.127-0.928,1.921-0.928
				c0.868,0,1.562,0.289,2.087,0.874c0.525,0.582,0.79,1.352,0.79,2.307c0,1.014-0.265,1.826-0.79,2.446
				c-0.525,0.62-1.219,0.93-2.087,0.93c-0.789,0-1.429-0.292-1.914-0.874l-0.037-0.044v3.199h-0.895h-0.904V1022.527
				L1787.74,1022.527z M1790.978,1027.563L1790.978,1027.563c0.48,0,0.855-0.163,1.129-0.491c0.271-0.332,0.407-0.791,0.407-1.379
				c0-0.6-0.134-1.065-0.405-1.402c-0.269-0.34-0.646-0.508-1.125-0.508c-0.481,0-0.855,0.177-1.127,0.521
				c-0.27,0.347-0.403,0.83-0.403,1.446c0,0.568,0.134,1.014,0.403,1.333C1790.129,1027.407,1790.5,1027.563,1790.978,1027.563z"/>
			<path fill="#FFFFFF" d="M1795.593,1022.527h0.854h0.858v0.926l0.119-0.159c0.483-0.618,1.126-0.928,1.921-0.928
				c0.867,0,1.559,0.289,2.084,0.874c0.527,0.582,0.79,1.352,0.79,2.307c0,1.014-0.263,1.826-0.79,2.446
				c-0.525,0.62-1.217,0.93-2.084,0.93c-0.792,0-1.431-0.292-1.916-0.874l-0.038-0.044v3.199h-0.895h-0.904L1795.593,1022.527
				L1795.593,1022.527z M1798.832,1027.563L1798.832,1027.563c0.479,0,0.856-0.163,1.128-0.491c0.271-0.332,0.409-0.791,0.409-1.379
				c0-0.6-0.137-1.065-0.404-1.402c-0.272-0.34-0.645-0.508-1.127-0.508c-0.481,0-0.856,0.177-1.127,0.521
				c-0.27,0.347-0.405,0.83-0.405,1.446c0,0.568,0.136,1.014,0.405,1.333C1797.981,1027.407,1798.353,1027.563,1798.832,1027.563z"
				/>
			<polygon fill="#FFFFFF" points="1803.531,1020.338 1804.428,1020.338 1805.332,1020.338 1805.332,1028.762 1804.435,1028.762 
				1803.531,1028.762 			"/>
			<path fill="#FFFFFF" d="M1810.701,1028.894c-0.396,1.051-0.731,1.708-1.013,1.977c-0.279,0.267-0.781,0.4-1.499,0.4l-0.86-0.016
				v-1.323c0.043,0.018,0.157,0.026,0.347,0.026c0.48,0,0.792-0.091,0.939-0.27c0.094-0.116,0.185-0.351,0.276-0.71l-2.545-6.453
				h0.989h0.997l1.488,4.63l1.44-4.63h0.945h0.941L1810.701,1028.894z"/>
			<path fill="#FFFFFF" d="M1820.464,1020.331h1.118h1.116l3.262,8.431h-1.021h-1.023l-0.621-1.719h-3.495l-0.61,1.719h-0.992
				h-0.998L1820.464,1020.331L1820.464,1020.331z M1820.332,1025.596L1820.332,1025.596h2.449l-1.227-3.388L1820.332,1025.596z"/>
			<path fill="#FFFFFF" d="M1828.87,1026.43c0,0.382,0.092,0.664,0.271,0.847c0.181,0.183,0.455,0.276,0.828,0.276
				c0.471,0,0.831-0.132,1.08-0.391c0.253-0.259,0.379-0.634,0.379-1.124v-3.513h0.896h0.902v6.235h-0.853h-0.86v-0.937
				c-0.063,0.115-0.135,0.223-0.224,0.322c-0.444,0.517-1.087,0.774-1.928,0.774c-0.721,0-1.282-0.194-1.687-0.582
				c-0.405-0.391-0.606-0.926-0.606-1.615v-4.198h0.895h0.905v3.906H1828.87z"/>
			<path fill="#FFFFFF" d="M1838.043,1028.795c-0.299,0.024-0.669,0.033-1.107,0.033c-0.634,0-1.09-0.104-1.371-0.313
				c-0.277-0.208-0.417-0.549-0.417-1.022v-3.813h-0.944v-1.154h0.944v-1.677h1.8v1.677h1.095v1.154h-1.096v3.534
				c0,0.146,0.047,0.242,0.143,0.285c0.093,0.049,0.289,0.073,0.586,0.073h0.367V1028.795z"/>
			<path fill="#FFFFFF" d="M1839.192,1020.338h0.896h0.903v2.982l0.143-0.186c0.446-0.515,1.089-0.771,1.932-0.771
				c0.724,0,1.287,0.19,1.694,0.582c0.408,0.391,0.616,0.931,0.616,1.619v4.195h-0.897h-0.902v-3.897
				c0-0.384-0.091-0.671-0.276-0.855c-0.181-0.186-0.462-0.279-0.839-0.279c-0.476,0-0.839,0.129-1.091,0.391
				c-0.256,0.263-0.379,0.636-0.379,1.123v3.519h-0.898h-0.901L1839.192,1020.338L1839.192,1020.338z"/>
			<path fill="#FFFFFF" d="M1847.592,1028.042c-0.629-0.583-0.945-1.373-0.945-2.364c0-1.016,0.316-1.821,0.945-2.417
				c0.63-0.601,1.477-0.896,2.543-0.896c1.078,0,1.928,0.295,2.555,0.896c0.628,0.596,0.942,1.402,0.942,2.417
				c0,0.992-0.314,1.781-0.942,2.364c-0.627,0.587-1.477,0.88-2.555,0.88C1849.068,1028.922,1848.222,1028.629,1847.592,1028.042
				L1847.592,1028.042z M1851.36,1027.064L1851.36,1027.064c0.278-0.32,0.419-0.789,0.419-1.401c0-0.632-0.141-1.109-0.419-1.435
				c-0.282-0.326-0.688-0.492-1.226-0.492c-0.532,0-0.939,0.166-1.219,0.492c-0.276,0.325-0.418,0.803-0.418,1.435
				c0,0.613,0.142,1.082,0.418,1.401c0.279,0.321,0.687,0.481,1.219,0.481C1850.672,1027.545,1851.078,1027.385,1851.36,1027.064z"
				/>
			<path fill="#FFFFFF" d="M1854.885,1022.527h0.852h0.858v1.12c0.065-0.123,0.136-0.241,0.215-0.356
				c0.424-0.62,0.97-0.925,1.642-0.925l0.408,0.003v1.677c-0.159-0.016-0.34-0.021-0.539-0.021c-0.55,0-0.96,0.12-1.229,0.371
				c-0.271,0.246-0.407,0.627-0.407,1.132v3.235h-0.897h-0.901v-6.236H1854.885z"/>
			<path fill="#FFFFFF" d="M1859.956,1020.274h1.831v1.526h-1.831V1020.274L1859.956,1020.274z M1859.974,1022.527
				L1859.974,1022.527h0.898h0.899v6.235h-0.894h-0.904v-6.235H1859.974z"/>
			<path fill="#FFFFFF" d="M1866.607,1028.795c-0.302,0.024-0.672,0.033-1.11,0.033c-0.634,0-1.09-0.104-1.37-0.313
				c-0.276-0.208-0.417-0.549-0.417-1.022v-3.813h-0.945v-1.154h0.945v-1.677h1.799v1.677h1.099v1.154h-1.099v3.534
				c0,0.146,0.049,0.242,0.144,0.285c0.092,0.049,0.289,0.073,0.584,0.073h0.371L1866.607,1028.795L1866.607,1028.795z"/>
			<path fill="#FFFFFF" d="M1871.403,1028.894c-0.396,1.051-0.731,1.708-1.013,1.977c-0.279,0.267-0.778,0.4-1.499,0.4l-0.859-0.016
				v-1.323c0.041,0.018,0.158,0.026,0.345,0.026c0.482,0,0.794-0.091,0.941-0.27c0.091-0.116,0.183-0.351,0.276-0.71l-2.547-6.453
				h0.992h0.994l1.49,4.63l1.44-4.63h0.944h0.941L1871.403,1028.894z"/>
			<path fill="#FFFFFF" d="M1736.022,1004.933l0.694-0.809h0.115c0.281,0.318,0.553,0.587,0.809,0.809h0.155
				c0.358-0.412,0.609-0.722,0.75-0.928v-0.231l-0.963-0.865c-0.037-0.013-0.07-0.021-0.097-0.021c-0.09,0-0.173,0.06-0.249,0.174
				c-0.076,0.116-0.127,0.183-0.155,0.195c-0.102,0.192-0.219,0.291-0.346,0.291c-0.116,0-0.292-0.108-0.529-0.33
				c-0.237-0.219-0.415-0.33-0.528-0.33l-0.769,0.953C1735.345,1004.358,1735.718,1004.725,1736.022,1004.933L1736.022,1004.933z
				 M1740.086,1004.605c0.425,0.179,0.765,0.687,1.02,1.518c0.218,0.744,0.269,1.602,0.154,2.577
				c-0.219,0.463-0.796,0.802-1.732,1.021c-1.9,0.178-3.054,0.268-3.467,0.268c-1.14,0-2.07-0.177-2.79-0.54
				c-0.794-0.397-1.153-1.055-1.077-1.979c0.063-0.689,0.354-1.41,0.867-2.151c0.012,0,0.044-0.018,0.096-0.059
				c0.051-0.012,0.091-0.012,0.114,0c-0.012,0.118-0.052,0.336-0.119,0.655c-0.053,0.268-0.079,0.48-0.079,0.636
				c0,0.321,0.097,0.584,0.29,0.788c0.54,0.565,1.418,0.849,2.639,0.849c0.191,0,0.481-0.009,0.867-0.025
				c0.384-0.016,0.668-0.025,0.848-0.025c0.437-0.049,0.873-0.102,1.311-0.149c0.499-0.079,0.906-0.2,1.213-0.367
				c-0.039-0.229-0.181-0.492-0.425-0.789c-0.346-0.406-0.537-0.645-0.576-0.709
				C1739.405,1005.764,1739.687,1005.257,1740.086,1004.605L1740.086,1004.605L1740.086,1004.605z M1744.222,1003.106
				L1744.222,1003.106c-0.113-1.385-0.178-2.378-0.19-2.979c0-0.129-0.052-0.168-0.154-0.115c-0.231,0.283-0.469,0.564-0.712,0.846
				c-0.268,0.333-0.403,0.651-0.403,0.961c0.011,0.655,0.096,1.763,0.25,3.327c0.129,1.374,0.18,2.475,0.155,3.309
				c0,0.189,0.038,0.308,0.116,0.344c0.603-0.743,0.956-1.275,1.06-1.596c0.021-0.373,0.035-0.749,0.035-1.133
				C1744.378,1005.364,1744.326,1004.377,1744.222,1003.106L1744.222,1003.106z M1748.562,1001.583L1748.562,1001.583
				c-0.282-0.116-0.558-0.231-0.827-0.348c-0.321-0.128-0.604-0.2-0.85-0.212c-0.268,0.554-0.434,0.988-0.498,1.312
				c0.385,0.192,0.937,0.409,1.653,0.653C1748.234,1002.693,1748.409,1002.225,1748.562,1001.583L1748.562,1001.583z
				 M1757.59,1009.955L1757.59,1009.955c-0.091,0-0.173,0.057-0.25,0.17c-0.078,0.117-0.127,0.184-0.155,0.195
				c-0.102,0.193-0.218,0.287-0.346,0.287c-0.112,0-0.292-0.104-0.528-0.316c-0.237-0.212-0.422-0.317-0.55-0.317l-0.748,0.939
				c0.435,0.515,0.808,0.872,1.115,1.077l0.692-0.805h0.115c0.283,0.316,0.553,0.588,0.809,0.805h0.154
				c0.346-0.41,0.597-0.719,0.749-0.923v-0.23l-0.96-0.863C1757.649,1009.961,1757.617,1009.955,1757.59,1009.955L1757.59,1009.955z
				 M1773.071,1009.973L1773.071,1009.973h-0.229l-0.676,1v0.212l1.37,0.695h0.248c0.254-0.333,0.463-0.705,0.615-1.117
				c-0.152-0.076-0.373-0.209-0.663-0.396C1773.446,1010.179,1773.226,1010.048,1773.071,1009.973L1773.071,1009.973z
				 M1784.603,1002.025L1784.603,1002.025l0.711-0.808h0.114c0.283,0.333,0.554,0.604,0.811,0.808h0.155
				c0.346-0.411,0.596-0.712,0.75-0.906v-0.25l-0.963-0.869c-0.038-0.011-0.078-0.016-0.116-0.016c-0.074,0-0.156,0.056-0.231,0.174
				c-0.077,0.115-0.126,0.18-0.153,0.191c-0.103,0.194-0.219,0.291-0.346,0.291c-0.116,0-0.294-0.11-0.53-0.329
				c-0.236-0.221-0.42-0.327-0.549-0.327l-0.75,0.972C1783.942,1001.474,1784.306,1001.833,1784.603,1002.025L1784.603,1002.025z
				 M1804.074,1000.871c0.026,0.31,0.057,0.611,0.094,0.907c0.036,0.836,0.055,3.043,0.055,6.617
				c-0.153,0.221-0.408,0.337-0.769,0.351h-4.384v-0.045h-3.305v-0.121c-0.146,0.091-0.318,0.157-0.544,0.166h-4.38v-0.045h-3.295
				v-0.139c-0.007,0.006-0.012,0.012-0.02,0.015c-0.102,0.07-0.16,0.115-0.172,0.124h-20.306c0.255,0.26,0.339,0.528,0.25,0.81
				c-0.115,0.448-0.226,0.896-0.328,1.345c-0.152,0.499-0.38,0.879-0.674,1.136c-0.641,0.039-1.221-0.285-1.732-0.963
				c-0.245-0.347-0.527-1.087-0.848-2.23c-0.307-0.091-0.777-0.122-1.394-0.102v0.006h-3.516v-0.162
				c-0.015,0.012-0.024,0.026-0.042,0.038c-0.104,0.07-0.162,0.115-0.175,0.124h-8.435c-0.14,1.509-0.841,2.756-2.111,3.742
				c-0.271,0.164-0.578,0.249-0.922,0.249c-0.44,0-0.817-0.117-1.138-0.348c-0.952-0.657-1.49-1.381-1.618-2.176l0.041-0.043
				c0.729,0.538,1.449,0.811,2.155,0.811c0.18,0,0.358-0.019,0.539-0.058c0.82-0.167,1.548-0.878,2.176-2.137
				c-0.038,0-0.026-0.023,0.039-0.076c-0.013-0.323-0.175-0.66-0.482-1.018c-0.258-0.312-0.521-0.619-0.793-0.928
				c0.245-0.68,0.504-1.23,0.772-1.654c0.27,0.066,0.501,0.259,0.694,0.578c0.129,0.281,0.264,0.564,0.403,0.848
				c0.05,0.146,0.074,0.296,0.11,0.442h3.218v-0.017h4.428c0.062-0.047,0.076-0.13,0.038-0.248c-0.051-0.15-0.077-0.234-0.077-0.248
				l-0.75-1.208l0.038-0.15l0.903-1.455c0.232,0.063,0.411,0.233,0.54,0.518c0.089,0.244,0.181,0.488,0.27,0.734
				c0.192,0.814,0.313,1.508,0.361,2.073h3.332c0.509-0.002,0.814-0.009,0.895-0.018c0.435-0.038,0.725-0.187,0.864-0.434
				c0.144-0.249,0.404-0.848,0.791-1.8c0.321-0.755,0.641-1.337,0.961-1.746c0.193-0.191,0.388-0.288,0.578-0.288
				c0.167,0,0.264,0.097,0.291,0.288c0.268,0.782,0.401,1.5,0.401,2.154c0,0.715-0.174,1.301-0.521,1.749
				c0.216,0.095,0.898,0.124,2.004,0.1v-0.022h6.813c0.076-0.009,0.188-0.062,0.328-0.151c-0.116-0.228-0.526-0.641-1.232-1.233
				c-0.473-0.419-1.064-0.629-1.771-0.629c-0.476,0-0.913,0.106-1.31,0.316c-0.039-0.026-0.059-0.16-0.059-0.398
				c0.655-0.849,1.394-1.268,2.214-1.268c0.168,0,0.34,0.018,0.521,0.057c0.616,0.138,1.269,0.515,1.965,1.128l1.691,1.685
				c0.347,0.33,0.744,0.494,1.193,0.494v0.017h3.061v-0.017h4.429c0.063-0.047,0.075-0.133,0.035-0.248
				c-0.05-0.15-0.073-0.234-0.073-0.248l-0.752-1.208l0.038-0.153l0.907-1.456c0.228,0.064,0.408,0.237,0.537,0.521
				c0.088,0.241,0.181,0.486,0.269,0.732c0.192,0.816,0.314,1.51,0.363,2.075h3.308v0.023h3.688l0.116-0.209
				c-0.013-0.672-0.076-1.573-0.187-2.705c-0.112-1.338-0.182-2.239-0.205-2.703l1.116-1.274c0.114,0.179,0.198,0.445,0.248,0.807
				c0.023,0.31,0.058,0.611,0.096,0.907c0.031,0.711,0.05,2.434,0.05,5.154h3.297v0.023h3.702l0.115-0.209
				c-0.015-0.672-0.075-1.573-0.187-2.705c-0.112-1.338-0.182-2.239-0.206-2.703l1.115-1.274
				C1803.937,1000.243,1804.021,1000.509,1804.074,1000.871L1804.074,1000.871L1804.074,1000.871z M1764.775,1005.951
				c-0.141,0.244-0.211,0.451-0.211,0.617c0.281-0.038,0.565-0.084,0.847-0.136c0.283-0.051,0.513-0.153,0.693-0.31
				c0.026-0.332-0.029-0.77-0.154-1.312l-0.154-0.266c-0.155,0.054-0.285,0.162-0.395,0.328c-0.109,0.167-0.216,0.334-0.318,0.499
				C1765.059,1005.425,1764.953,1005.617,1764.775,1005.951L1764.775,1005.951L1764.775,1005.951z M1766.392,1010.168
				c0.128-0.027,0.191-0.213,0.191-0.562c-0.164-0.489-0.601-0.87-1.306-1.154c-0.041,0-0.141-0.012-0.299-0.041
				c-0.16-0.023-0.28-0.029-0.355-0.017c0.004,0.206,0.004,0.306,0,0.306C1765.174,1009.716,1765.763,1010.204,1766.392,1010.168
				L1766.392,1010.168L1766.392,1010.168z M1814.135,1013.719L1814.135,1013.719c-0.104,0-0.195,0.094-0.279,0.281
				c-0.083,0.186-0.164,0.285-0.242,0.3c-0.55-0.213-0.978-0.406-1.289-0.581c-0.039,0.026-0.123,0.154-0.247,0.382
				c-0.129,0.229-0.194,0.36-0.194,0.4v0.038c0.413,0.274,0.801,0.491,1.172,0.648c0.027,0.011,0.053,0.019,0.079,0.019
				c0.076,0,0.162-0.091,0.258-0.271c0.099-0.182,0.189-0.27,0.28-0.27c0.062,0,0.463,0.179,1.191,0.541
				c0.094,0,0.209-0.136,0.349-0.404c0.102-0.219,0.16-0.374,0.173-0.464c-0.104-0.093-0.323-0.22-0.663-0.378
				C1814.381,1013.799,1814.186,1013.719,1814.135,1013.719L1814.135,1013.719z M1826.73,1004.125L1826.73,1004.125
				c-0.129-0.284-0.31-0.455-0.539-0.518l-0.904,1.455l-0.038,0.15l0.75,1.208c0,0.014,0.024,0.098,0.077,0.248
				c0.039,0.118,0.025,0.201-0.037,0.248h-4.428v0.017h-3.935c-0.86,0-1.622,0.173-2.291,0.52c-0.82,0.419-1.232,1.02-1.232,1.783
				c0,0.361,0.265,0.686,0.79,0.981c0.411,0.191,0.822,0.384,1.232,0.574c-0.27,0.22-0.532,0.381-0.79,0.482
				c-0.613,0.27-1.275,0.406-1.979,0.406c-1.489,0-2.233-0.693-2.233-2.077c0-0.293,0.105-0.771,0.317-1.441
				c0.21-0.665,0.315-0.978,0.315-0.941c0-0.088-0.038-0.133-0.114-0.133c-0.258,0-0.554,0.494-0.887,1.481
				c-0.295,0.897-0.442,1.544-0.442,1.944c0,0.934,0.206,1.677,0.618,2.228c0.46,0.616,1.153,0.926,2.075,0.926
				c0.976,0,1.982-0.314,3.023-0.94c1.154-0.703,1.733-1.51,1.733-2.417c0-0.422-0.02-0.677-0.061-0.768
				c-0.099-0.193-0.369-0.359-0.808-0.498c-0.306-0.104-0.612-0.201-0.923-0.288c0.359-0.026,1.22-0.038,2.579-0.038
				c0.009,0,0.021-0.01,0.028-0.017h8.333c0.015-0.009,0.07-0.054,0.175-0.124c0.101-0.069,0.159-0.144,0.172-0.22
				c0.053-0.285,0.078-0.584,0.078-0.905c0-0.642-0.129-1.505-0.385-2.593C1826.91,1004.613,1826.821,1004.369,1826.73,1004.125
				L1826.73,1004.125z M1825.824,1009.973c0.144,0.075,0.357,0.206,0.646,0.395c0.288,0.187,0.51,0.319,0.662,0.396
				c-0.152,0.412-0.358,0.784-0.614,1.117h-0.25l-1.367-0.695v-0.212l0.674-1h0.249V1009.973L1825.824,1009.973z M1831.99,1002.741
				L1831.99,1002.741c-0.398,0.718-0.655,1.206-0.771,1.463c0.015,0.014,0.226,0.449,0.633,1.306
				c0.259,0.515,0.406,0.968,0.444,1.369c-0.243,0.151-0.551,0.263-0.924,0.324c-0.139,0.027-0.493,0.053-1.058,0.08
				c-0.372,0.063-0.642-0.091-0.81-0.465c-0.114-0.321-0.229-0.637-0.344-0.942c-0.311,0.487-0.433,1.204-0.368,2.152
				c0.116,0.382,0.189,0.583,0.222,0.604c0.034,0.017,0.047,0.055,0.047,0.106c0.309,0.229,0.675,0.345,1.098,0.345
				c0.27,0,0.669-0.061,1.194-0.178c0.526-0.122,0.904-0.187,1.137-0.203l0.461-0.15c0.296-0.181,0.443-0.396,0.443-0.655
				c0-1.681-0.334-3.264-1.003-4.751C1832.328,1002.926,1832.197,1002.793,1831.99,1002.741L1831.99,1002.741z M1841.619,1001.123
				L1841.619,1001.123l0.714-0.812h0.095c0.284,0.334,0.559,0.605,0.83,0.812h0.135c0.358-0.415,0.614-0.722,0.769-0.927v-0.232
				l-0.981-0.868c-0.027-0.013-0.059-0.02-0.098-0.02c-0.077,0-0.154,0.06-0.238,0.176c-0.087,0.114-0.132,0.18-0.148,0.194
				c-0.115,0.191-0.236,0.29-0.362,0.29c-0.114,0-0.29-0.111-0.521-0.331c-0.23-0.217-0.409-0.329-0.537-0.329l-0.752,0.976
				C1840.945,1000.568,1841.311,1000.928,1841.619,1001.123L1841.619,1001.123z M1850.369,1002.472L1850.369,1002.472
				c0.129,0.063,0.252,0.119,0.369,0.172c-0.166,0.333-0.249,0.518-0.249,0.556c0,0.066,0.045,0.096,0.134,0.096l0.861-0.712
				c0.051-0.038,0.264-0.114,0.634-0.229c0.254-0.092,0.383-0.225,0.383-0.404c0-0.076-0.021-0.168-0.059-0.271
				c-0.192,0.089-0.383,0.179-0.576,0.271c-0.269,0.115-0.493,0.171-0.671,0.171c-0.206,0-0.397-0.064-0.574-0.19
				c-0.028-0.051-0.04-0.102-0.04-0.152c0-0.09,0.082-0.218,0.251-0.381c0.114-0.12,0.277-0.183,0.482-0.193
				c0.206-0.013,0.397-0.021,0.579-0.021c0.09-0.181,0.14-0.313,0.154-0.403c-0.104-0.064-0.367-0.094-0.791-0.094
				c-0.295,0.064-0.544,0.242-0.745,0.538c-0.199,0.291-0.313,0.611-0.338,0.958
				C1850.174,1002.312,1850.24,1002.407,1850.369,1002.472L1850.369,1002.472z M1861.223,1009.955L1861.223,1009.955
				c-0.089,0-0.173,0.057-0.249,0.17c-0.076,0.117-0.13,0.184-0.154,0.195c-0.102,0.193-0.219,0.287-0.349,0.287
				c-0.114,0-0.29-0.104-0.528-0.316c-0.235-0.212-0.418-0.317-0.547-0.317l-0.751,0.939c0.437,0.515,0.809,0.872,1.118,1.077
				l0.692-0.805h0.114c0.282,0.316,0.554,0.588,0.81,0.805h0.152c0.347-0.41,0.599-0.719,0.75-0.923v-0.23l-0.962-0.863
				C1861.281,1009.961,1861.25,1009.955,1861.223,1009.955L1861.223,1009.955z M1871.655,1002.583
				c1.544,1.333,2.315,2.741,2.315,4.214c0,0.413-0.066,0.823-0.194,1.233l-0.191,0.58c-0.09,0.23-0.213,0.396-0.368,0.5
				c-0.308-0.014-0.696-0.195-1.174-0.547c-0.474-0.357-0.861-0.558-1.157-0.609c-0.166,0.014-0.365,0.129-0.604,0.345
				c-0.236,0.221-0.441,0.341-0.609,0.367l-0.133,0.036h-7.097v-0.162c-0.016,0.016-0.026,0.026-0.045,0.038
				c-0.103,0.07-0.161,0.115-0.171,0.124h-8.657v-0.139c-0.008,0.006-0.013,0.012-0.021,0.015c-0.102,0.07-0.159,0.115-0.172,0.124
				h-9.234c-0.655-0.127-1.077-0.717-1.271-1.767l-0.097-0.502l-0.308,0.502c-0.13,0.425-0.335,0.724-0.617,0.903
				c-0.872,0-1.68-0.281-2.424-0.849c-0.102-1.024,0.187-1.839,0.865-2.442c0.231-0.188,0.525-0.371,0.886-0.54
				c0.321-0.139,0.634-0.273,0.943-0.402c0.078-0.152,0.058-0.328-0.059-0.521l0.81-1.192l0.154,0.346
				c0.103,0.938,0.32,2.317,0.654,4.14c0.191,0.293,0.611,0.479,1.264,0.558h3.081v-0.017h4.428
				c0.065-0.047,0.075-0.133,0.037-0.248c-0.052-0.15-0.076-0.234-0.076-0.248l-0.75-1.208l0.038-0.153l0.904-1.456
				c0.231,0.064,0.409,0.237,0.538,0.521c0.092,0.241,0.181,0.486,0.271,0.732c0.191,0.816,0.314,1.51,0.363,2.075h3.094v-0.017
				h4.43c0.063-0.047,0.077-0.13,0.037-0.248c-0.051-0.15-0.077-0.234-0.077-0.248l-0.751-1.208l0.038-0.15l0.905-1.455
				c0.231,0.063,0.412,0.233,0.539,0.518c0.091,0.244,0.178,0.488,0.27,0.734c0.192,0.814,0.313,1.508,0.362,2.073h3.123v-0.017
				h2.887c0.114-0.894,0.262-1.544,0.44-1.956l1.061-1.054c-0.258-0.283-0.386-0.492-0.386-0.638c0-0.061,0.013-0.124,0.038-0.19
				c0.258-0.56,0.518-0.911,0.79-1.056c0.193-0.022,0.392,0.042,0.598,0.192C1871.343,1002.332,1871.503,1002.454,1871.655,1002.583
				L1871.655,1002.583L1871.655,1002.583z M1842.236,1006.047c0.152,0,0.299-0.027,0.443-0.074c0-0.259-0.124-0.831-0.367-1.714
				l-1.021,0.5l-0.422,0.268c-0.167,0.105-0.28,0.22-0.327,0.347c0.047,0.029,0.122,0.079,0.21,0.157
				c0.245,0.103,0.497,0.215,0.761,0.336C1841.777,1005.986,1842.018,1006.047,1842.236,1006.047L1842.236,1006.047
				L1842.236,1006.047z M1870.649,1006.568c0.257-0.284,0.386-0.617,0.386-1.001c0-0.396-0.104-0.634-0.308-0.71
				c-0.078-0.026-0.172-0.046-0.286-0.046c-0.349,0.046-0.61,0.237-0.79,0.583c-0.126,0.32-0.254,0.634-0.385,0.943
				L1870.649,1006.568L1870.649,1006.568L1870.649,1006.568z M1871.29,1006.682l1.773,0.6c-0.104-1.208-0.536-2.068-1.297-2.582
				v0.35C1871.767,1005.497,1871.607,1006.041,1871.29,1006.682L1871.29,1006.682z"/>
		</g>
	</g>
	
		<rect x="1273.977" y="506.605" fill="none" stroke="#FFFFFF" stroke-width="0.5" stroke-miterlimit="10" width="568.279" height="319.386"/>
</g>
<g id="Layer_2">
</g>
<g id="Layer_3">
</g>
<g id="Layer_4">
</g>
</svg>
